<?xml version="1.0" encoding="UTF-8" standalone="no"?>
<!-- Created with Inkscape (http://www.inkscape.org/) -->

<svg
   xmlns:dc="http://purl.org/dc/elements/1.1/"
   xmlns:cc="http://creativecommons.org/ns#"
   xmlns:rdf="http://www.w3.org/1999/02/22-rdf-syntax-ns#"
   xmlns:svg="http://www.w3.org/2000/svg"
   xmlns="http://www.w3.org/2000/svg"
   xmlns:xlink="http://www.w3.org/1999/xlink"
   xmlns:sodipodi="http://sodipodi.sourceforge.net/DTD/sodipodi-0.dtd"
   xmlns:inkscape="http://www.inkscape.org/namespaces/inkscape"
   width="256"
   height="256"
   id="svg2"
   version="1.1"
   inkscape:version="0.47 r22583"
   sodipodi:docname="icon_on.svg"
   inkscape:export-filename="C:\Users\Christophe\Documents\svn\pwdhash-chrome\trunk\images\icon19on.png"
   inkscape:export-xdpi="6.6796875"
   inkscape:export-ydpi="6.6796875">
  <defs
     id="defs4">
    <linearGradient
       id="linearGradient5095">
      <stop
         style="stop-color:#d8ac37;stop-opacity:1;"
         offset="0"
         id="stop5097" />
      <stop
         id="stop5103"
         offset="1"
         style="stop-color:#e3dccd;stop-opacity:1;" />
    </linearGradient>
    <inkscape:perspective
       sodipodi:type="inkscape:persp3d"
       inkscape:vp_x="0 : 526.18109 : 1"
       inkscape:vp_y="0 : 1000 : 0"
       inkscape:vp_z="744.09448 : 526.18109 : 1"
       inkscape:persp3d-origin="372.04724 : 350.78739 : 1"
       id="perspective10" />
    <inkscape:perspective
       id="perspective2824"
       inkscape:persp3d-origin="0.5 : 0.33333333 : 1"
       inkscape:vp_z="1 : 0.5 : 1"
       inkscape:vp_y="0 : 1000 : 0"
       inkscape:vp_x="0 : 0.5 : 1"
       sodipodi:type="inkscape:persp3d" />
    <linearGradient
       inkscape:collect="always"
       xlink:href="#linearGradient5095"
       id="linearGradient5101"
       x1="59.093925"
       y1="132.1132"
       x2="79.140663"
       y2="113.26447"
       gradientUnits="userSpaceOnUse"
       gradientTransform="matrix(3.4261541,0,0,2.4980231,-36.595637,670.50129)" />
    <inkscape:perspective
       id="perspective2840"
       inkscape:persp3d-origin="0.5 : 0.33333333 : 1"
       inkscape:vp_z="1 : 0.5 : 1"
       inkscape:vp_y="0 : 1000 : 0"
       inkscape:vp_x="0 : 0.5 : 1"
       sodipodi:type="inkscape:persp3d" />
  </defs>
  <sodipodi:namedview
     id="base"
     pagecolor="#ffffff"
     bordercolor="#666666"
     borderopacity="1.0"
     inkscape:pageopacity="0.0"
     inkscape:pageshadow="2"
     inkscape:zoom="1.979899"
     inkscape:cx="31.010137"
     inkscape:cy="134.38761"
     inkscape:document-units="px"
     inkscape:current-layer="layer1"
     showgrid="false"
     showguides="true"
     inkscape:guide-bbox="true"
     inkscape:window-width="1266"
     inkscape:window-height="891"
     inkscape:window-x="25"
     inkscape:window-y="130"
     inkscape:window-maximized="0" />
  <metadata
     id="metadata7">
    <rdf:RDF>
      <cc:Work
         rdf:about="">
        <dc:format>image/svg+xml</dc:format>
        <dc:type
           rdf:resource="http://purl.org/dc/dcmitype/StillImage" />
        <dc:title></dc:title>
      </cc:Work>
    </rdf:RDF>
  </metadata>
  <g
     inkscape:label="Calque 1"
     inkscape:groupmode="layer"
     id="layer1"
     transform="translate(0,-796.36218)">
    <rect
       style="fill:#ebd67c;fill-opacity:0.93333333;stroke:#1a1a1a;stroke-width:5.50088167;stroke-miterlimit:4;stroke-opacity:1;stroke-dasharray:none"
       id="rect3633"
       width="210.8129"
       height="106.74695"
       x="-15.21125"
       y="799.88666"
       ry="25.799984" />
    <rect
       style="fill:none;stroke:#666666;stroke-width:13.99517536;stroke-linecap:butt;stroke-linejoin:miter;stroke-miterlimit:4;stroke-opacity:1;stroke-dasharray:none"
       id="rect5117"
       width="80.503868"
       height="135.48209"
       x="126.59905"
       y="878.78577"
       ry="40.251934" />
    <text
       xml:space="preserve"
       style="font-size:155.50195312px;font-style:normal;font-weight:normal;fill:#000000;fill-opacity:1;stroke:none;font-family:Bitstream Vera Sans"
       x="-25.854151"
       y="961.09528"
       id="text2830"><tspan
         sodipodi:role="line"
         id="tspan2832"
         x="-25.854151"
         y="961.09528"
         style="font-size:186.60235596px;font-family:FreeSans;-inkscape-font-specification:FreeSans">****</tspan></text>
    <rect
       style="fill:url(#linearGradient5101);fill-opacity:1;fill-rule:evenodd;stroke:#97611a;stroke-width:5.85076094;stroke-linecap:butt;stroke-linejoin:round;stroke-miterlimit:4;stroke-opacity:1;stroke-dasharray:none"
       id="rect2837"
       width="131.51566"
       height="88.318451"
       x="100.11144"
       y="956.36383"
       ry="23.562105"
       rx="7.8540354" />
    <rect
       style="fill:#ffffff;fill-rule:evenodd;stroke:#ffffff;stroke-width:2.29532003px;stroke-linecap:butt;stroke-linejoin:miter;stroke-opacity:1"
       id="rect5113"
       width="19.263811"
       height="168.49045"
       x="-19.575706"
       y="764.1062" />
    <path
       style="fill:#008000;stroke:none"
       d="m 72.852207,960.2361 c -0.61386,0.36925 -0.40817,-0.98513 -0.44949,-1.03259 -0.10594,-0.1217 -0.34354,0.12169 -0.44948,0 -0.10595,-0.1217 0.10594,-0.39461 0,-0.51631 -0.21189,-0.24338 -0.63096,0.15394 -0.89898,0 -0.18952,-0.10883 -0.25997,-0.40744 -0.44949,-0.51629 -0.13401,-0.077 -0.34354,0.1217 -0.44949,0 -0.10594,-0.12169 0.10595,-0.3946 0,-0.5163 -0.21189,-0.24338 -0.63095,0.15394 -0.89897,0 -1.87066,-1.07435 0.48052,0.0357 -0.44949,-1.03259 -0.10594,-0.12169 -0.31547,0.077 -0.44949,0 -0.18952,-0.10884 -0.25996,-0.40745 -0.44948,-0.5163 -0.26803,-0.15392 -0.68709,0.24339 -0.89898,0 -0.10595,-0.12168 0.10595,-0.39459 0,-0.51629 -0.10595,-0.12169 -0.34354,0.1217 -0.44949,0 -0.10594,-0.12169 0.10595,-0.39461 0,-0.5163 -0.21189,-0.24338 -0.68708,0.24339 -0.89897,0 -0.10595,-0.1217 0.10594,-0.39461 0,-0.5163 -0.21189,-0.24338 -0.68709,0.24339 -0.89898,0 -0.10595,-0.12169 0.10595,-0.3946 0,-0.51629 -0.14791,-0.1699 -0.75106,0.1699 -0.89898,0 -0.10594,-0.1217 0.10595,-0.39461 0,-0.5163 -0.21189,-0.24338 -0.68708,0.24339 -0.89897,0 -0.10595,-0.1217 0.067,-0.36237 0,-0.51629 -0.93533,-2.14871 0.031,0.55193 -0.89898,-0.5163 -0.10594,-0.1217 0.10595,-0.39461 0,-0.5163 -0.21189,-0.24338 -0.68708,0.24339 -0.89897,0 -0.10595,-0.12169 0.10594,-0.39461 0,-0.51629 -0.93001,-1.06824 0.0363,1.6324 -0.89898,-0.51631 -0.067,-0.15392 0.10595,-0.3946 0,-0.5163 -0.21189,-0.24338 -0.68708,0.24339 -0.89897,0 -0.10595,-0.12168 0.10594,-0.39459 0,-0.51629 -0.10595,-0.12169 -0.31548,0.077 -0.44949,0 -0.18952,-0.10884 -0.25997,-0.40745 -0.44949,-0.5163 -0.13401,-0.077 -0.31548,0.077 -0.44949,0 -0.18952,-0.10884 -0.25997,-0.40744 -0.44949,-0.51629 -0.13401,-0.077 -0.34354,0.12169 -0.44948,0 -0.10595,-0.12169 0.10594,-0.3946 0,-0.5163 -0.10595,-0.12169 -0.34355,0.1217 -0.44949,0 -0.10595,-0.12169 0.10594,-0.39461 0,-0.5163 -0.21189,-0.24338 -0.68709,0.24339 -0.89898,0 -0.10594,-0.12168 0.10595,-0.39461 0,-0.51629 -0.10594,-0.1217 -0.31547,0.077 -0.44949,0 -0.18952,-0.10885 -0.25996,-0.40746 -0.44948,-0.5163 -0.13402,-0.077 -0.34355,0.12169 -0.44949,0 -0.10595,-0.1217 0.10594,-0.39461 0,-0.5163 -0.22474,-0.25814 -1.12372,0.25815 -1.34846,0 -0.10595,-0.12169 0.067,-0.36237 0,-0.51629 -0.93534,-2.14871 0.031,0.55193 -0.89898,-0.5163 -0.10595,-0.1217 0.10594,-0.39461 0,-0.51629 -0.22474,-0.25815 -1.12372,0.25814 -1.34846,0 -0.10595,-0.1217 0.10594,-0.39461 0,-0.5163 -0.10595,-0.1217 -0.31548,0.077 -0.44949,0 -0.18952,-0.10885 -0.25997,-0.40746 -0.44949,-0.51631 -0.26802,-0.15392 -0.63095,0.15394 -0.89898,0 -0.18952,-0.10884 -0.25996,-0.40744 -0.44948,-0.51629 -0.13402,-0.077 -0.34355,0.12169 -0.44949,0 -0.10595,-0.12169 0.10594,-0.3946 0,-0.5163 -0.10595,-0.12169 -0.34354,0.1217 -0.44949,0 -0.10595,-0.12169 0.10595,-0.3946 0,-0.5163 -0.21189,-0.24338 -0.63095,0.15394 -0.89898,0 -0.18952,-0.10884 -0.25996,-0.40744 -0.44948,-0.51629 -0.13401,-0.077 -0.34355,0.1217 -0.44949,0 -0.10595,-0.12169 0.10594,-0.3946 0,-0.5163 -0.10595,-0.12169 -0.31548,0.077 -0.44949,0 -0.18952,-0.10884 -0.25997,-0.40744 -0.44949,-0.51629 -0.17822,-0.10235 -1.25657,0.10554 -1.34846,0 -0.10595,-0.12169 0.10594,-0.39461 0,-0.5163 -0.10595,-0.12169 -0.31548,0.077 -0.44949,0 -0.18952,-0.10885 -0.25997,-0.40746 -0.44949,-0.5163 -0.35959,-0.20652 -0.98887,0.20652 -1.34846,0 -1.49076,-1.71233 0.42378,0.24339 -0.89898,-0.51629 -0.18952,-0.10885 -0.25996,-0.40746 -0.44948,-0.5163 -0.13402,-0.077 -0.31548,0.077 -0.44949,0 -0.18952,-0.10885 -0.25997,-0.40746 -0.44949,-0.5163 -0.11621,-0.0668 -2.37833,0 -2.69693,0 -0.10901,0 -1.33401,-0.0166 -1.34846,0 -0.10595,0.12169 0,0.3442 0,0.5163 0,0.3591 -0.0813,2.39477 0,2.58148 0.0948,0.21769 0.35473,0.29861 0.44949,0.5163 0.13401,0.30786 -0.21189,0.78921 0,1.03259 0.10594,0.1217 0.34354,-0.12169 0.44949,0 0.13918,0.15988 -0.13919,2.42162 0,2.58149 0.10594,0.12169 0.34354,-0.1217 0.44948,0 0.10595,0.12169 -0.10594,0.3946 0,0.5163 0.10595,0.12169 0.34355,-0.1217 0.44949,0 0.22474,0.25815 -0.22474,1.29074 0,1.54889 0.10595,0.12168 0.31548,-0.077 0.44949,0 1.87066,1.07435 -0.48052,-0.0357 0.44949,1.03259 0.10594,0.1217 0.34354,-0.12169 0.44948,0 0.21189,0.24338 -0.21189,0.78921 0,1.03259 0.10595,0.1217 0.34355,-0.12169 0.44949,0 0.10595,0.1217 -0.10594,0.39461 0,0.5163 0.93001,1.06824 -0.0363,-1.6324 0.89898,0.51629 0.13401,0.30786 -0.21189,0.78922 0,1.03261 0.21189,0.24337 0.68708,-0.24339 0.89897,0 0.2119,0.24337 -0.21189,0.7892 0,1.03259 0.10595,0.12169 0.34355,-0.1217 0.44949,0 0.10595,0.12169 -0.10594,0.3946 0,0.5163 0.21189,0.24338 0.68709,-0.24339 0.89898,0 0.21189,0.24338 -0.21189,0.7892 0,1.03259 0.21189,0.24338 0.68708,-0.24339 0.89897,0 0.10595,0.12169 -0.10594,0.3946 0,0.51629 0.10595,0.12169 0.34355,-0.12169 0.44949,0 0.21189,0.24339 -0.21189,0.78921 0,1.0326 0.93001,1.06824 -0.0363,-1.63241 0.89898,0.51629 0.13401,0.30786 -0.21189,0.78921 0,1.0326 0.10594,0.12169 0.31547,-0.077 0.44949,0 1.87066,1.07435 -0.48052,-0.0357 0.44948,1.03259 0.10595,0.1217 0.34355,-0.12169 0.44949,0 0.10595,0.1217 -0.067,0.36237 0,0.51629 0.0948,0.2177 0.35473,0.29861 0.44949,0.51631 0.067,0.15393 -0.10595,0.3946 0,0.5163 0.21189,0.24338 0.68708,-0.24339 0.89897,0 0.21189,0.24338 -0.13401,0.72473 0,1.03259 0.93533,2.1487 -0.031,-0.55194 0.89898,0.5163 0.21189,0.24338 -0.21189,0.7892 0,1.03259 0.10595,0.12169 0.31548,-0.077 0.44949,0 0.18952,0.10884 0.29966,0.3442 0.44949,0.5163 0.14983,0.17209 0.35472,0.2986 0.44948,0.51629 0.067,0.15394 -0.067,0.36237 0,0.5163 0.2697,0.61956 1.07877,0.92933 1.34847,1.54889 0.067,0.15393 -0.10595,0.39461 0,0.51629 0.10594,0.1217 0.34354,-0.12168 0.44949,0 0.10594,0.1217 -0.10595,0.39461 0,0.5163 0.10594,0.1217 0.34354,-0.12169 0.44948,0 0.10595,0.1217 -0.067,0.36237 0,0.51631 0.0948,0.21768 0.35473,0.29859 0.44949,0.51629 0.067,0.15393 -0.10594,0.3946 0,0.5163 0.10595,0.12169 0.34354,-0.1217 0.44949,0 0.10594,0.12169 -0.067,0.36236 0,0.51629 0.0948,0.21769 0.35473,0.29861 0.44949,0.5163 0.067,0.15393 -0.10595,0.3946 0,0.5163 0.10594,0.12168 0.34354,-0.1217 0.44949,0 0.21189,0.24338 -0.2119,0.7892 0,1.03259 0.21189,0.24338 0.68708,-0.24339 0.89897,0 0.22475,0.25815 -0.22474,1.29074 0,1.54889 0.21189,0.24338 0.68709,-0.24339 0.89898,0 0.21189,0.24338 -0.21189,0.78921 0,1.03259 0.10594,0.1217 0.34354,-0.12169 0.44948,0 0.10595,0.1217 -0.067,0.36237 0,0.5163 0.0658,0.15104 0.83323,0.88155 0.89898,1.0326 0.067,0.15392 -0.067,0.36236 0,0.5163 0.26969,0.61955 1.07877,0.92932 1.34846,1.54888 0.067,0.15393 -0.067,0.36237 0,0.5163 0.18952,0.43538 0.70946,0.59722 0.89898,1.03259 0.067,0.15394 -0.10595,0.39461 0,0.5163 0.10595,0.1217 0.34354,-0.12169 0.44949,0 0.10594,0.1217 -0.067,0.36237 0,0.5163 0.0948,0.21768 0.35473,0.2986 0.44949,0.51629 0.067,0.15394 -0.10595,0.39461 0,0.5163 0.10594,0.1217 0.34354,-0.12169 0.44948,0 0.21189,0.24338 -0.13401,0.72473 0,1.03259 0.93533,2.14871 -0.031,-0.55193 0.89898,0.5163 0.10594,0.12169 -0.067,0.36237 0,0.5163 0.0948,0.21769 0.35473,0.29861 0.44949,0.5163 0.067,0.15392 -0.10595,0.3946 0,0.5163 0.10594,0.12168 0.34354,-0.1217 0.44949,0 0.10594,0.12168 -0.067,0.36236 0,0.51629 0.93533,2.14871 -0.031,-0.55194 0.89897,0.5163 0.21189,0.24338 -0.13401,0.72473 0,1.03259 0.93533,2.14871 -0.031,-0.55194 0.89898,0.5163 0.21189,0.24338 -0.13402,0.72473 0,1.03259 0.93533,2.14871 -0.031,-0.55193 0.89897,0.5163 0.10595,0.12169 -0.10594,0.3946 0,0.51629 0.10595,0.1217 0.34354,-0.12169 0.44949,0 0.21189,0.24339 -0.21189,0.78921 0,1.03259 0.10595,0.1217 0.34354,-0.12168 0.44949,0 0.93,1.06825 -1.42117,-0.0418 0.44949,1.03265 0.13401,0.077 0.34354,-0.1217 0.44948,0 0.21189,0.2433 -0.21189,0.7892 0,1.0326 0.10595,0.1216 0.34355,-0.1217 0.44949,0 0.10595,0.1216 -0.10594,0.3946 0,0.5163 0.10595,0.1216 0.34354,-0.1217 0.44949,0 0.21189,0.2433 -0.21189,0.7892 0,1.0325 0.10595,0.1217 0.31548,-0.077 0.44949,0 1.87066,1.0744 -0.48052,-0.036 0.44949,1.0326 0.10594,0.1217 0.34354,-0.1217 0.44948,0 0.21189,0.2434 -0.21189,0.7892 0,1.0326 0.10595,0.1217 0.34355,-0.1217 0.44949,0 0.10595,0.1217 -0.10594,0.3946 0,0.5163 0.10595,0.1217 0.34354,-0.1217 0.44949,0 0.10594,0.1217 -0.10595,0.3946 0,0.5163 0.10594,0.1217 0.34354,-0.1217 0.44949,0 0.21189,0.2434 -0.21189,0.7892 0,1.0326 0.10594,0.1217 0.34354,-0.1217 0.44948,0 0.10595,0.1217 -0.10594,0.3946 0,0.5163 0.10595,0.1217 0.34355,-0.1217 0.44949,0 0.21189,0.2434 -0.21189,0.7892 0,1.0326 0.10595,0.1217 0.34355,-0.1217 0.44949,0 0.10595,0.1217 -0.067,0.3624 0,0.5163 0.0948,0.2177 0.35473,0.2986 0.44949,0.5163 0.067,0.1539 -0.10595,0.3946 0,0.5163 0.10594,0.12173 0.34354,-0.1217 0.44949,0 0.10594,0.12173 -0.067,0.36243 0,0.51633 0.93533,2.1487 -0.031,-0.55193 0.89897,0.5163 0.10595,0.1217 -0.10594,0.3946 0,0.5163 0.10595,0.1217 0.34354,-0.1217 0.44949,0 0.21189,0.2434 -0.21189,0.7892 0,1.0326 0.10595,0.1217 0.34354,-0.1217 0.44949,0 0.10594,0.1217 -0.10595,0.3946 0,0.5163 0.10594,0.1217 0.34354,-0.1217 0.44949,0 0.21189,0.2434 -0.21189,0.7892 0,1.0326 0.10594,0.1217 0.34354,-0.1217 0.44948,0 0.10595,0.1217 -0.10594,0.3946 0,0.5163 1.19864,0 -0.14983,-0.1721 0.44949,0.5163 0.10595,0.1217 0.34354,-0.1217 0.44949,0 0.10595,0.1217 -0.10595,0.3946 0,0.5163 0.10595,0.1217 0.34354,-0.1217 0.44949,0 0.21189,0.2434 -0.21189,0.7892 0,1.0326 0.21189,0.2433 0.68708,-0.2434 0.89897,0 0.21189,0.2433 -0.21189,0.7892 0,1.0326 0.10595,0.1217 0.34355,-0.1217 0.44949,0 0.10595,0.1217 -0.10594,0.3946 0,0.5163 0.10595,0.1216 0.34354,-0.1217 0.44949,0 0.10594,0.1216 -0.10595,0.3946 0,0.5162 0.10594,0.1217 0.34354,-0.1216 0.44949,0 0.10594,0.1217 -0.10595,0.3947 0,0.5164 0.93,1.0682 -0.0363,-1.6325 0.89897,0.5163 0.13401,0.3078 -0.21189,0.7892 0,1.0325 0.30535,0.3508 0.89393,-0.5279 1.34847,0.5163 0.13401,0.3079 -0.21189,0.7892 0,1.0326 0.10594,0.1217 0.34354,-0.1217 0.44948,0 0.10595,0.1217 -0.10594,0.3946 0,0.5163 0.10595,0.1217 0.34355,-0.1217 0.44949,0 0.10595,0.1217 -0.10594,0.3946 0,0.5163 0.10595,0.1217 0.34354,-0.1217 0.44949,0 0.10595,0.1217 -0.10595,0.3946 0,0.5163 0.10595,0.1217 0.34354,-0.1217 0.44949,0 0.10594,0.1217 -0.10595,0.3946 0,0.5163 0.10594,0.1217 0.34354,-0.1217 0.44949,0 0.10594,0.1217 -0.10595,0.3946 0,0.5163 0.10594,0.1217 0.34354,-0.1217 0.44948,0 0.10595,0.1217 -0.10594,0.3946 0,0.5163 0.93001,1.0683 -0.0364,-1.6324 0.89898,0.5163 0.067,0.1539 -0.10595,0.3946 0,0.5163 0.10816,0.1242 1.68979,-0.1242 1.79795,0 0.10595,0.1217 -0.10594,0.3946 0,0.5163 0.10595,0.1217 0.29966,0 0.44949,0 0.14983,0 0.29966,0 0.44949,0 1.19863,0 2.39727,0 3.5959,0 0.14983,0 0.29966,0 0.44949,0 0.14983,0 0.34354,0.1217 0.44949,0 0.10594,-0.1217 -0.10595,-0.3946 0,-0.5163 0.10594,-0.1217 0.31547,0.077 0.44948,0 0.18952,-0.1088 0.25997,-0.4074 0.44949,-0.5163 0.13401,-0.077 0.34354,0.1217 0.44949,0 0.10594,-0.1217 -0.10595,-0.3946 0,-0.5163 0.10816,-0.1242 1.68979,0.1242 1.79795,0 0.10595,-0.1217 -0.10594,-0.3946 0,-0.5163 0.10595,-0.1217 0.34354,0.1217 0.44949,0 0.10594,-0.1217 -0.10595,-0.3946 0,-0.5163 0.10594,-0.1217 0.34354,0.1217 0.44949,0 0.10594,-0.1217 -0.10595,-0.3946 0,-0.5163 0.14881,-0.1709 0.75016,0.171 0.89897,0 0.21189,-0.2434 -0.21189,-0.7892 0,-1.0326 0.21189,-0.2434 0.68709,0.2434 0.89898,0 0.21189,-0.2434 -0.21189,-0.7892 0,-1.0326 0.10594,-0.1217 0.34354,0.1217 0.44949,0 0.10594,-0.1217 -0.10595,-0.3946 0,-0.5163 0.21189,-0.2433 0.68708,0.2434 0.89897,0 0.21189,-0.2433 -0.21189,-0.7892 0,-1.0326 0.10595,-0.1217 0.34355,0.1217 0.44949,0 0.10595,-0.1217 -0.10594,-0.3946 0,-0.5162 0.21189,-0.2434 0.68709,0.2433 0.89897,0 0.10595,-0.1217 -0.10594,-0.3947 0,-0.5163 0.10595,-0.1217 0.343553,0.1216 0.449493,0 0.10595,-0.1217 -0.10594,-0.3947 0,-0.5164 0.10595,-0.1216 0.34355,0.1217 0.4495,0 0.10593,-0.1216 -0.10595,-0.3946 0,-0.5162 0.10593,-0.1217 0.34353,0.1216 0.44948,0 0.10594,-0.1217 -0.10595,-0.3946 0,-0.5163 0.10594,-0.1217 0.34354,0.1217 0.44949,0 0.10595,-0.1217 -0.10595,-0.3946 0,-0.5163 0.10595,-0.1217 0.34354,0.1217 0.44949,0 0.10594,-0.1217 -0.10595,-0.3946 0,-0.5163 0.10594,-0.1217 0.34353,0.1217 0.44948,0 0.10595,-0.1217 -0.10595,-0.3946 0,-0.5163 0.10595,-0.1217 0.34355,0.1217 0.44949,0 0.10595,-0.1217 -0.10594,-0.3946 0,-0.5163 0.10595,-0.1217 0.34355,0.1217 0.44949,0 0.10594,-0.1217 -0.10594,-0.3946 0,-0.5163 0.10594,-0.1217 0.34354,0.1217 0.44949,0 0.10594,-0.1217 -0.10595,-0.3946 0,-0.5163 0.10594,-0.1217 0.34354,0.1217 0.44949,0 0.10594,-0.1217 -0.10595,-0.3946 0,-0.5163 0.10594,-0.1217 0.34354,0.1217 0.44948,0 0.93001,-1.0683 -1.42117,0.042 0.44949,-1.0326 0.13401,-0.077 0.31548,0.077 0.44949,0 0.37904,-0.2177 0.51993,-0.8149 0.89898,-1.0326 0.134,-0.077 0.34354,0.1217 0.44948,0 0.10595,-0.1217 -0.10594,-0.3946 0,-0.5163 0.10595,-0.1217 0.34354,0.1217 0.44949,0 0.10595,-0.1217 -0.10595,-0.3946 0,-0.5163 0.10595,-0.1217 0.34355,0.1217 0.44949,0 0.10594,-0.1217 -0.10594,-0.3946 0,-0.5163 0.10594,-0.1217 0.34355,0.1217 0.44949,0 0.10594,-0.1217 -0.10594,-0.3946 0,-0.51633 0.93,-1.0682 -0.0364,1.63243 0.89898,-0.5163 0.067,-0.1539 -0.10595,-0.3946 0,-0.5163 0.21188,-0.2434 0.68708,0.2434 0.89897,0 0.10595,-0.1217 -0.10595,-0.3946 0,-0.5163 0.10595,-0.1217 0.34355,0.1217 0.44948,0 0.2119,-0.2434 -0.21188,-0.7892 0,-1.0326 0.2119,-0.2434 0.68709,0.2434 0.89899,0 0.10594,-0.1217 -0.10595,-0.3946 0,-0.5163 0.10594,-0.1217 0.34354,0.1217 0.44948,0 0.10595,-0.1217 0,-0.3442 0,-0.5163 0.14983,0 0.31547,0.077 0.44949,0 0.82751,-0.4752 0.0715,-1.0736 0.89897,-1.5489 0.62001,-0.3561 0.40206,0.6253 0.89898,-0.5163 0.067,-0.1539 -0.067,-0.3623 0,-0.5163 0.0948,-0.2177 0.29966,-0.3442 0.44949,-0.5163 0.14983,-0.1721 0.25997,-0.4074 0.44949,-0.5163 0.13401,-0.077 0.34354,0.1217 0.44948,0 0.93001,-1.0682 -1.42117,0.042 0.44949,-1.0325 0.13401,-0.077 0.34355,0.1216 0.44949,0 0.21189,-0.2434 -0.21189,-0.7893 0,-1.0326 0.21189,-0.2434 0.68708,0.2433 0.89898,0 0.10595,-0.1217 -0.067,-0.3624 0,-0.5163 0.0948,-0.2177 0.29966,-0.34424 0.44948,-0.51635 0.14983,-0.1721 0.25997,-0.40745 0.44949,-0.5163 0.13402,-0.077 0.31548,0.077 0.44949,0 1.87066,-1.07434 -0.48052,0.0357 0.44948,-1.03259 0.10595,-0.12169 0.34355,0.1217 0.4495,0 0.10594,-0.12169 -0.10595,-0.3946 0,-0.51629 0.10594,-0.12169 0.34354,0.12169 0.44949,0 0.93,-1.06823 -1.42118,0.0418 0.44948,-1.0326 0.13402,-0.077 0.31547,0.077 0.44949,0 0.0861,-0.0494 1.75493,-1.96635 1.79795,-2.06518 0.067,-0.15394 -0.10594,-0.39461 0,-0.5163 0.10595,-0.1217 0.31548,0.077 0.44949,0 0.18952,-0.10885 0.29966,-0.3442 0.44949,-0.51629 0.14982,-0.1721 0.29965,-0.3442 0.44948,-0.5163 0.74915,-0.86049 1.4983,-1.721 2.24744,-2.58149 0.29966,-0.3442 0.54637,-0.76258 0.89898,-1.03259 0.12467,-0.0955 0.31548,0.077 0.44949,0 0.37904,-0.21769 0.54637,-0.76258 0.89898,-1.0326 0.27875,-0.21346 0.66207,-0.24418 0.89897,-0.51629 0.10595,-0.1217 -0.067,-0.36237 0,-0.5163 0.0948,-0.21769 0.29966,-0.3442 0.44948,-0.5163 0.14983,-0.17209 0.25997,-0.40745 0.4495,-0.51629 0.134,-0.077 0.31547,0.077 0.44949,0 0.68842,-0.39538 0.3515,-0.92006 0.89897,-1.54889 0.2369,-0.27212 0.61169,-0.31831 0.89897,-0.51631 0.46324,-0.31924 0.96648,-0.59382 1.34847,-1.03259 0.10595,-0.12169 -0.10595,-0.3946 0,-0.5163 0.2369,-0.2721 0.63095,-0.2854 0.89897,-0.51629 1.94417,-2.23313 -0.11907,-0.081 1.79796,-1.54889 1.03263,-0.79075 -0.19275,-0.29491 0.89897,-1.54889 0.10595,-0.1217 0.30735,0.0544 0.44949,0 0.31784,-0.1217 0.66207,-0.24419 0.89898,-0.5163 0.10594,-0.12169 0,-0.34419 0,-0.51629 0.14983,-0.3442 0.17072,-0.81914 0.44949,-1.03259 0.24932,-0.19093 0.61469,0.10883 0.89897,0 0.89445,-0.34248 0.20976,-0.48189 0.44948,-1.03261 0.93534,-2.14869 -0.0311,0.55195 0.89899,-0.51629 0.10593,-0.12169 -0.10595,-0.3946 0,-0.5163 0.2369,-0.27211 0.6202,-0.30283 0.89897,-0.5163 0.17631,-0.135 0.29966,-0.34419 0.44949,-0.51629 0.29965,-0.3442 0.59931,-0.6884 0.89897,-1.03259 0.14983,-0.1721 0.25997,-0.40746 0.44949,-0.5163 0.13401,-0.077 0.34354,0.12169 0.44949,0 0.54747,-0.62885 0.21055,-1.15352 0.89897,-1.54889 0.13402,-0.077 0.34354,0.12169 0.44949,0 0.10595,-0.1217 0,-0.3442 0,-0.5163 0.14983,-0.34419 0.17073,-0.81914 0.44949,-1.03259 0.24933,-0.19093 0.63095,0.15393 0.89898,0 0.134,-0.077 -0.067,-0.36237 0,-0.51631 0.12002,-0.27574 1.11182,-1.27707 1.34846,-1.54888 1.49076,-1.71234 -0.42378,0.24338 0.89898,-0.5163 0.18952,-0.10884 0.29966,-0.3442 0.44949,-0.5163 0.14982,-0.1721 0.33194,-0.31379 0.44948,-0.51629 0.14983,-0.3442 0.29966,-0.6884 0.44949,-1.0326 0.14983,0 0.34354,0.12169 0.44948,0 0.54748,-0.62884 0.21055,-1.15351 0.89898,-1.54888 0.13401,-0.077 0.31548,0.077 0.44949,0 0.24007,-0.13788 1.11183,-1.27709 1.34846,-1.54889 0.44949,-0.51631 0.89898,-1.03261 1.34847,-1.5489 0.14983,-0.1721 0.33195,-0.31379 0.44949,-0.5163 0.18583,-0.32019 0.26364,-0.7124 0.44948,-1.03259 0.23508,-0.40501 0.59932,-0.6884 0.89898,-1.03259 0.74915,-0.8605 1.49829,-1.72099 2.24744,-2.58148 0.29966,-0.3442 0.66391,-0.62758 0.89897,-1.03261 0.27374,-0.47163 0.38368,-1.25294 0.89898,-1.54889 0.13401,-0.077 0.34354,0.1217 0.44949,0 0.10595,-0.12168 -0.0473,-0.35302 0,-0.51629 0.10595,-0.36507 0.21259,-0.76049 0.44949,-1.03259 0.10594,-0.12169 0.31548,0.077 0.44948,0 0.13599,-0.0781 1.72996,-1.90899 1.79796,-2.06519 0.067,-0.15393 -0.067,-0.36237 0,-0.5163 0.93533,-2.1487 -0.0311,0.55194 0.89897,-0.51629 0.10595,-0.1217 -0.067,-0.36237 0,-0.5163 0.12004,-0.27575 1.11182,-1.27708 1.34847,-1.5489 0.14983,-0.1721 0.29966,-0.34419 0.44948,-0.51629 0.14983,-0.1721 0.25997,-0.40745 0.44949,-0.5163 0.13402,-0.077 0.38248,0.15394 0.44949,0 0.13401,-0.30786 -0.21189,-0.78921 0,-1.03259 0.33503,-0.38482 0.95423,-0.21442 1.34847,-0.5163 0.12466,-0.0955 -0.067,-0.36236 0,-0.51629 0.26968,-0.61956 1.07876,-0.92934 1.34845,-1.54889 0.13402,-0.30786 -0.21188,-0.78921 0,-1.0326 0.10595,-0.12169 0.34355,0.12169 0.44949,0 0.38199,-0.43877 0.51699,-1.11012 0.89898,-1.54889 0.38199,-0.43877 0.96647,-0.59383 1.34846,-1.0326 0.10595,-0.12169 -0.10595,-0.3946 0,-0.51629 0.10595,-0.12169 0.29966,0 0.44949,0 0.14983,-0.1721 0.33195,-0.31379 0.44948,-0.5163 0.18585,-0.32019 0.21259,-0.76048 0.4495,-1.03259 0.10594,-0.12169 0.29966,0 0.44949,0 0.14983,-0.1721 0.33195,-0.31379 0.44948,-0.5163 0.18585,-0.32019 0.26365,-0.7124 0.44949,-1.03259 0.23507,-0.40502 0.70945,-0.59722 0.89897,-1.03259 0.067,-0.15394 -0.134,-0.43934 0,-0.5163 1.19864,-0.6884 0.62503,0.73016 1.34847,-0.5163 0.18584,-0.32019 0.34354,-0.66752 0.44949,-1.0326 0.0474,-0.16326 -0.10595,-0.3946 0,-0.5163 0.2369,-0.2721 0.66207,-0.24417 0.89897,-0.51629 0.10595,-0.12169 -0.10594,-0.3946 0,-0.5163 0.10595,-0.12169 0.34355,0.1217 0.4495,0 0.23689,-0.27211 0.24847,-0.72473 0.44948,-1.03259 0.25427,-0.38941 0.6639,-0.62758 0.89897,-1.03259 0.0831,-0.1432 -0.067,-0.36237 0,-0.5163 0.0948,-0.21769 0.29966,-0.3442 0.44949,-0.5163 0.14983,-0.17209 0.25997,-0.40745 0.44949,-0.51629 0.13401,-0.077 0.34355,0.12169 0.44949,0 0.93,-1.06824 -1.42118,0.0417 0.44949,-1.03259 0.62,-0.35608 0.40205,0.62526 0.89897,-0.5163 0.31,-0.71216 -0.54435,-0.46182 0.44949,-1.0326 0.13401,-0.077 0.34355,0.12169 0.44948,0 0.10595,-0.12169 -0.0473,-0.35303 0,-0.5163 0.10595,-0.36507 0.21259,-0.76047 0.4495,-1.03259 0.10594,-0.12169 0.34354,0.1217 0.44949,0 0.93,-1.06823 -1.42118,0.0417 0.44948,-1.03259 0.13401,-0.077 0.31548,0.077 0.44949,0 0.18952,-0.10884 0.29966,-0.3442 0.44949,-0.5163 0.14983,-0.1721 0.29965,-0.3442 0.44948,-0.5163 0.14983,-0.1721 0.29966,-0.34419 0.44949,-0.51629 0.14984,-0.1721 0.35474,-0.29861 0.4495,-0.5163 0.067,-0.15393 -0.067,-0.36237 0,-0.5163 0.93532,-2.1487 -0.0311,0.55194 0.89897,-0.51629 0.93001,-1.06824 -1.42117,0.0417 0.44948,-1.03259 0.13402,-0.077 0.31549,0.077 0.44949,0 0.99384,-0.57079 0.13949,-0.32045 0.44949,-1.03261 0.26969,-0.61955 1.07877,-0.92932 1.34847,-1.54889 0.067,-0.15392 -0.10595,-0.39459 0,-0.51629 0.10594,-0.12169 0.34353,0.1217 0.44948,0 0.10595,-0.12169 -0.10595,-0.3946 0,-0.5163 0.10595,-0.12169 0.34355,0.1217 0.44949,0 0.10595,-0.12169 0,-0.3442 0,-0.51629 0.14983,0 0.31548,0.077 0.44948,0 0.99385,-0.57078 0.13949,-0.32044 0.4495,-1.0326 0.18952,-0.43538 0.70945,-0.59721 0.89897,-1.03259 0.067,-0.15393 -0.10594,-0.39461 0,-0.5163 0.10595,-0.12169 0.31547,0.077 0.44949,0 1.87066,-1.07435 -0.48052,0.0357 0.44949,-1.03259 0.10594,-0.1217 0.34354,0.12169 0.44948,0 0.10595,-0.1217 -0.10594,-0.39461 0,-0.5163 0.93001,-1.06824 -0.0364,1.63241 0.89898,-0.5163 0.31,-0.71216 -0.54435,-0.46181 0.44949,-1.03259 0.13402,-0.077 0.34354,0.12169 0.44949,0 0.21189,-0.24339 -0.21189,-0.78921 0,-1.03259 0.10594,-0.1217 0.34354,0.12169 0.44948,0 0.10595,-0.1217 -0.10594,-0.39461 0,-0.5163 0.2119,-0.24339 0.68709,0.24338 0.89898,0 0.21189,-0.24339 -0.13401,-0.72474 0,-1.0326 0.0948,-0.21769 0.29966,-0.34419 0.44949,-0.51629 0.14983,-0.1721 0.25997,-0.40745 0.44949,-0.5163 0.13401,-0.077 0.34354,0.12169 0.44948,0 0.2119,-0.24338 -0.21189,-0.78921 0,-1.03259 0.10595,-0.1217 0.31548,0.077 0.44949,0 1.87067,-1.07436 -0.48051,0.0356 0.44949,-1.0326 0.10594,-0.12169 0.34355,0.1217 0.44949,0 0.10594,-0.12169 -0.067,-0.36236 0,-0.51629 0.18952,-0.43538 0.70946,-0.59722 0.89898,-1.0326 0.067,-0.15393 -0.067,-0.36236 0,-0.5163 0.41375,-0.95051 0.9347,-0.0821 1.34845,-1.03259 0.13402,-0.30786 -0.21188,-0.78921 0,-1.03259 0.93002,-1.06824 -0.0364,1.63241 0.89899,-0.5163 0.134,-0.30786 -0.2119,-0.78921 0,-1.03259 0.10593,-0.1217 0.31547,0.077 0.44948,0 0.18952,-0.10885 0.29966,-0.3442 0.44949,-0.5163 0.14983,-0.1721 0.35473,-0.29861 0.44949,-0.5163 0.24713,-0.56772 -0.43288,-1.04213 0.44948,-1.54889 0.62001,-0.35608 0.40206,0.62527 0.89898,-0.5163 0.13401,-0.30785 -0.21189,-0.7892 0,-1.03259 0.93001,-1.06824 -0.0364,1.63241 0.89898,-0.5163 0.13401,-0.30786 -0.2119,-0.7892 0,-1.03259 0.10594,-0.12169 0.34354,0.12169 0.44948,0 0.10595,-0.12169 -0.10594,-0.3946 0,-0.5163 0.10595,-0.12169 0.34355,0.1217 0.44949,0 0.10595,-0.12169 -0.10594,-0.3946 0,-0.51629 0.10595,-0.1217 0.34355,0.12169 0.44949,0 0.21189,-0.24339 -0.13401,-0.72474 0,-1.0326 0.41376,-0.95051 0.93471,-0.0821 1.34846,-1.03259 0.067,-0.15393 -0.067,-0.36237 0,-0.5163 0.18952,-0.43538 0.70946,-0.59721 0.89898,-1.03259 0.067,-0.15393 -0.10595,-0.39461 0,-0.5163 0.10594,-0.12169 0.34355,0.12169 0.44948,0 0.10595,-0.12169 -0.067,-0.36237 0,-0.5163 0.18953,-0.43538 0.70947,-0.59721 0.89899,-1.03259 0.067,-0.15393 -0.067,-0.36237 0,-0.5163 0.93532,-2.1487 -0.0311,0.55194 0.89897,-0.51629 0.10595,-0.1217 -0.10595,-0.39461 0,-0.5163 0.10595,-0.12169 0.34354,0.12169 0.44948,0 0.2119,-0.24339 -0.21188,-0.78921 0,-1.03259 0.10595,-0.1217 0.34355,0.12169 0.44949,0 0.10595,-0.1217 -0.10594,-0.39461 0,-0.5163 0.10595,-0.12169 0.34355,0.12169 0.4495,0 0.21188,-0.24339 -0.2119,-0.78921 0,-1.0326 0.10594,-0.12169 0.31547,0.077 0.44948,0 1.87066,-1.07435 -0.48052,0.0357 0.44949,-1.03259 0.10595,-0.12169 0.34354,0.12169 0.44949,0 0.30535,-0.35073 -0.45959,-1.02679 0.44948,-1.54889 0.13402,-0.077 0.34355,0.12169 0.44949,0 0.10595,-0.12169 -0.067,-0.36237 0,-0.5163 0.0948,-0.21769 0.35473,-0.2986 0.44949,-0.51629 0.13401,-0.30786 -0.21189,-0.78921 0,-1.0326 0.10594,-0.12169 0.34354,0.12169 0.44949,0 0.10594,-0.12169 -0.10595,-0.3946 0,-0.5163 0.10594,-0.12169 0.34354,0.1217 0.44949,0 0.15091,-0.17333 -0.15091,-0.85925 0,-1.03259 0.10595,-0.12169 0.34354,0.12169 0.44948,0 0.10595,-0.12169 -0.10594,-0.3946 0,-0.5163 0.10595,-0.12169 0.34354,0.1217 0.44949,0 0.10595,-0.12169 -0.067,-0.36236 0,-0.51629 0.0948,-0.21769 0.35473,-0.29861 0.44949,-0.5163 0.0891,-0.20471 -0.0919,-1.44334 0,-1.54889 0.10594,-0.12169 0.34355,0.12169 0.44949,0 0.10594,-0.12169 -0.10594,-0.39461 0,-0.5163 0.10594,-0.12169 0.34354,0.12169 0.44949,0 0.21188,-0.24338 -0.2119,-0.78921 0,-1.03259 0.10594,-0.12169 0.34354,0.12169 0.44949,0 0.0204,-0.0234 0,-2.33805 0,-2.58149 0,-0.12521 0.0144,-1.53228 0,-1.54889 -0.10595,-0.12169 -0.34355,0.1217 -0.44949,0 -0.10595,-0.12169 0.10594,-0.3946 0,-0.51629 -0.0919,-0.10555 -1.17025,0.10235 -1.34847,0 -0.18952,-0.10885 -0.25997,-0.40746 -0.44949,-0.5163 -0.13401,-0.077 -0.29965,0 -0.44948,0 -0.14983,0 -0.29966,0 -0.44949,0 -0.74915,0 -1.4983,0 -2.24744,0 -0.14983,0 -0.34354,-0.12169 -0.44949,0 -0.10594,0.12169 0.10595,0.3946 0,0.5163 -0.13918,0.15987 -2.10825,-0.15987 -2.24744,0 -0.10595,0.12169 0.10595,0.3946 0,0.51629 -0.10595,0.1217 -0.34354,-0.12169 -0.44948,0 -0.10595,0.1217 0.10594,0.39461 0,0.5163 -0.2119,0.24339 -0.68709,-0.24338 -0.89899,0 -0.10593,0.12169 0.10595,0.3946 0,0.5163 -0.10593,0.12169 -0.34354,-0.1217 -0.44948,0 -0.10595,0.12169 0.10594,0.3946 0,0.51629 -0.10595,0.1217 -0.34354,-0.12169 -0.44949,0 -0.10595,0.1217 0.10595,0.39461 0,0.5163 -0.10595,0.12169 -0.31547,-0.077 -0.44949,0 -0.18951,0.10885 -0.29965,0.3442 -0.44948,0.5163 -0.14983,0.1721 -0.35473,0.2986 -0.44949,0.51629 -0.067,0.15393 0.10594,0.39461 0,0.5163 -0.10595,0.12169 -0.31548,-0.077 -0.44949,0 -0.18952,0.10885 -0.25997,0.40745 -0.44949,0.5163 -0.134,0.077 -0.34354,-0.12169 -0.44949,0 -0.10594,0.12169 0.10595,0.3946 0,0.5163 -0.10594,0.12169 -0.34354,-0.1217 -0.44948,0 -0.10595,0.12169 0.10594,0.3946 0,0.51629 -0.10595,0.12169 -0.34354,-0.12169 -0.44949,0 -0.21189,0.24339 0.21189,0.78921 0,1.0326 -0.21189,0.24338 -0.68709,-0.24339 -0.89898,0 -0.10594,0.12169 0.10595,0.3946 0,0.51629 -0.10594,0.1217 -0.34354,-0.12169 -0.44949,0 -0.21188,0.24339 0.2119,0.78921 0,1.0326 -0.21188,0.24338 -0.68708,-0.24339 -0.89897,0 -0.10595,0.12169 0.10595,0.3946 0,0.51629 -0.10595,0.1217 -0.34354,-0.12169 -0.44949,0 -0.21189,0.24339 0.21189,0.78921 0,1.0326 -0.14953,0.17175 -0.74945,-0.17176 -0.89897,0 -0.21189,0.24338 0.21189,0.78921 0,1.03259 -0.10595,0.12169 -0.31548,-0.077 -0.4495,0 -0.18951,0.10885 -0.25996,0.40745 -0.44948,0.5163 -0.13401,0.077 -0.34354,-0.12169 -0.44949,0 -0.21189,0.24338 0.2119,0.78921 0,1.03259 -0.10595,0.1217 -0.31547,-0.077 -0.44948,0 -0.18952,0.10885 -0.29966,0.3442 -0.44949,0.5163 -0.14983,0.1721 -0.35473,0.29861 -0.44949,0.5163 -0.067,0.15393 0.10594,0.3946 0,0.51629 -0.21189,0.24339 -0.68708,-0.24338 -0.89898,0 -0.21188,0.24339 0.2119,0.78921 0,1.0326 -0.21188,0.24338 -0.68709,-0.24339 -0.89897,0 -0.10595,0.12169 0.10595,0.3946 0,0.51629 -0.10595,0.1217 -0.34355,-0.12169 -0.44949,0 -0.21189,0.24339 0.21189,0.78921 0,1.0326 -0.21189,0.24338 -0.68709,-0.24339 -0.89898,0 -0.10594,0.12169 0.10595,0.3946 0,0.5163 -0.10594,0.12169 -0.34354,-0.1217 -0.44949,0 -0.21188,0.24338 0.2119,0.7892 0,1.03259 -0.21188,0.24338 -0.68708,-0.24339 -0.89897,0 -0.21189,0.24338 0.21189,0.78921 0,1.03259 -0.21189,0.24339 -0.63095,-0.15393 -0.89897,0 -0.82752,0.47526 -0.0715,1.07364 -0.89898,1.54889 -0.26802,0.15393 -0.68709,-0.24338 -0.89898,0 -0.30535,0.35074 0.45959,1.02679 -0.44948,1.54889 -0.26803,0.15393 -0.68709,-0.24338 -0.89899,0 -0.93,1.06824 1.42118,-0.0417 -0.44948,1.0326 -1.19863,0 0.14983,-0.1721 -0.44949,0.5163 -0.10595,0.12169 -0.34354,-0.1217 -0.44948,0 -0.10595,0.12169 0.10594,0.3946 0,0.51629 -0.10595,0.12169 -0.31549,-0.077 -0.44949,0 -0.18952,0.10885 -0.29966,0.3442 -0.44949,0.5163 -0.23664,0.27181 -1.1084,1.41102 -1.34847,1.54889 -0.13401,0.077 -0.34353,-0.12169 -0.44948,0 -0.2369,0.27211 -0.21259,0.76048 -0.44949,1.03259 -0.10595,0.1217 -0.31548,-0.077 -0.44948,0 -0.5394,0.30978 -0.80908,1.23912 -1.34847,1.54889 -0.13401,0.077 -0.34354,-0.12169 -0.44949,0 -0.10595,0.1217 0.10595,0.39461 0,0.5163 -0.10595,0.12169 -0.34354,-0.12169 -0.44949,0 -0.93001,1.06824 1.42117,-0.0418 -0.44948,1.0326 -0.13402,0.077 -0.34355,-0.1217 -0.44949,0 -0.10595,0.12169 0.10594,0.3946 0,0.51629 -0.10595,0.1217 -0.31548,-0.077 -0.4495,0 -0.18951,0.10885 -0.25996,0.40745 -0.44948,0.5163 -0.13401,0.077 -0.34354,-0.12169 -0.44949,0 -0.10595,0.12169 0.067,0.36237 0,0.5163 -0.0948,0.21769 -0.29966,0.34419 -0.44948,0.51629 -0.14983,0.1721 -0.25997,0.40746 -0.44949,0.5163 -0.13401,0.077 -0.34355,-0.12169 -0.44949,0 -0.10594,0.12169 0.10594,0.39461 0,0.5163 -0.93001,1.06823 0.0363,-1.63241 -0.89898,0.51629 -0.067,0.15393 0.10595,0.39461 0,0.5163 -0.21188,0.24339 -0.63095,-0.15393 -0.89897,0 -0.37904,0.21769 -0.51994,0.81491 -0.89897,1.03259 -0.13402,0.077 -0.34355,-0.12169 -0.4495,0 -0.10594,0.1217 0.10595,0.39461 0,0.5163 -0.10594,0.12169 -0.34354,-0.12169 -0.44949,0 -0.21188,0.24339 0.2119,0.78921 0,1.0326 -0.21188,0.24338 -0.68708,-0.24339 -0.89897,0 -0.93001,1.06823 1.42117,-0.0418 -0.44949,1.03259 -0.13401,0.077 -0.31548,-0.077 -0.44948,0 -0.18953,0.10884 -0.27319,0.38129 -0.4495,0.5163 -0.27875,0.21346 -0.62021,0.30283 -0.89897,0.51629 -0.17631,0.13501 -0.25997,0.40746 -0.44949,0.5163 -0.13401,0.077 -0.31548,-0.077 -0.44948,0 -1.87067,1.07435 0.48051,-0.0356 -0.44949,1.03259 -0.10595,0.1217 -0.34355,-0.12169 -0.4495,0 -0.10593,0.1217 0.10595,0.39461 0,0.5163 -0.21188,0.24339 -0.68707,-0.24338 -0.89897,0 -0.10595,0.12169 0.10595,0.39461 0,0.5163 -0.10595,0.12169 -0.31547,-0.077 -0.44948,0 -0.37904,0.21769 -0.51994,0.8149 -0.89898,1.03259 -0.13401,0.077 -0.31548,-0.077 -0.44949,0 -1.87066,1.07435 0.48052,-0.0356 -0.44949,1.0326 -0.10594,0.12169 -0.31547,-0.077 -0.44949,0 -0.18951,0.10884 -0.25996,0.40745 -0.44948,0.51629 -0.13402,0.077 -0.34354,-0.12169 -0.44949,0 -0.10595,0.1217 0.10595,0.39461 0,0.5163 -0.10595,0.12169 -0.31548,-0.077 -0.44948,0 -0.18953,0.10885 -0.25997,0.40745 -0.4495,0.5163 -0.13401,0.077 -0.34354,-0.1217 -0.44949,0 -0.10593,0.12169 0.10595,0.3946 0,0.51629 -0.93,1.06824 0.0364,-1.6324 -0.89897,0.5163 -0.067,0.15393 0.10595,0.39461 0,0.5163 -0.22475,0.25815 -1.12372,-0.25815 -1.34846,0 -0.10595,0.12169 0.067,0.36236 0,0.5163 -0.0948,0.21768 -0.35473,0.2986 -0.44949,0.51629 -0.067,0.15393 0.10594,0.3946 0,0.5163 -0.21189,0.24338 -0.63096,-0.15394 -0.89898,0 -0.37903,0.21769 -0.51993,0.8149 -0.89897,1.03259 -0.13401,0.077 -0.31548,-0.077 -0.44949,0 -0.18952,0.10885 -0.25996,0.40746 -0.44949,0.5163 -0.13401,0.077 -0.34354,-0.12169 -0.44949,0 -0.10595,0.1217 0.067,0.36237 0,0.51629 -0.34421,0.79076 -0.80099,0.40376 -1.34846,1.0326 -0.10594,0.12169 0.10595,0.39461 0,0.51629 -0.10594,0.1217 -0.31548,-0.077 -0.44948,0 -0.18953,0.10885 -0.25997,0.40746 -0.4495,0.5163 -0.134,0.077 -0.31547,-0.077 -0.44949,0 -0.11549,0.0664 -0.78347,0.96626 -0.89897,1.0326 -0.13401,0.077 -0.34354,-0.1217 -0.44948,0 -0.10595,0.12169 0.10594,0.3946 0,0.5163 -0.93002,1.06823 0.0364,-1.63241 -0.89899,0.51629 -0.067,0.15393 0.10595,0.3946 0,0.5163 -0.21188,0.24339 -0.63095,-0.15393 -0.89897,0 -0.99384,0.57078 -0.13949,0.32043 -0.44949,1.03259 -0.41375,0.95052 -0.9347,0.0821 -1.34846,1.0326 -0.067,0.15393 0.13401,0.43933 0,0.51629 -0.26802,0.15394 -0.63095,-0.15392 -0.89898,0 -0.13401,0.077 0.10595,0.39461 0,0.5163 -0.10595,0.1217 -0.31547,-0.077 -0.44948,0 -1.87066,1.07435 0.48051,-0.0357 -0.44949,1.03259 -0.10595,0.1217 -0.31548,-0.077 -0.44949,0 -0.53939,0.30979 -0.80907,1.23911 -1.34847,1.5489 -0.13401,0.077 -0.31547,-0.077 -0.44948,0 -1.87066,1.07434 0.48051,-0.0357 -0.44949,1.03259 -0.10595,0.12169 -0.31548,-0.077 -0.44948,0 -0.18953,0.10884 -0.29966,0.3442 -0.44949,0.5163 -0.14984,0.1721 -0.35474,0.29861 -0.4495,0.51629 -0.067,0.15393 0.10595,0.3946 0,0.5163 -0.21188,0.24339 -0.68707,-0.24338 -0.89897,0 -0.10595,0.12169 0.10595,0.39461 0,0.5163 -0.2369,0.27211 -0.66207,0.24418 -0.89897,0.51629 -0.10595,0.1217 0.10594,0.39461 0,0.5163 -0.10595,0.1217 -0.31548,-0.077 -0.44949,0 -0.37905,0.21769 -0.51993,0.8149 -0.89898,1.03259 -0.13401,0.077 -0.34354,-0.12169 -0.44949,0 -0.10594,0.1217 0.067,0.36237 0,0.5163 -0.93533,2.1487 0.0311,-0.55194 -0.89897,0.51629 -0.10595,0.1217 0.10594,0.39461 0,0.5163 -0.54747,0.62885 -1.00426,0.24185 -1.34847,1.0326 -0.067,0.15393 0.10595,0.3946 0,0.5163 -0.21188,0.24339 -0.63095,-0.15393 -0.89897,0 -1.87067,1.07435 0.48051,-0.0357 -0.44949,1.03259 -0.2369,0.27211 -0.66207,0.24418 -0.89898,0.5163 -0.10594,0.12169 0.10595,0.3946 0,0.51629 -0.54746,0.62885 -1.00425,0.24185 -1.34846,1.0326 -0.31,0.71216 0.54436,0.46181 -0.44948,1.03259 -0.62002,0.35608 -0.40206,-0.62527 -0.89899,0.5163 -0.067,0.15393 0.10595,0.3946 0,0.51629 -0.93,1.06824 0.0364,-1.6324 -0.89897,0.5163 -0.31,0.71216 0.54436,0.46182 -0.44949,1.0326 -0.13401,0.077 -0.31548,-0.077 -0.44948,0 -0.53939,0.30978 -0.80908,1.2391 -1.34847,1.54889 -0.13401,0.077 -0.34354,-0.1217 -0.44949,0 -0.10594,0.12169 0.10595,0.3946 0,0.5163 -0.2369,0.27211 -0.62021,0.30283 -0.89897,0.51629 -0.35261,0.27002 -0.51993,0.81491 -0.89898,1.0326 -0.13401,0.077 -0.34354,-0.12169 -0.44949,0 -0.10594,0.12168 0.10595,0.3946 0,0.51629 -0.10594,0.1217 -0.31547,-0.077 -0.44948,0 -0.37904,0.21769 -0.54637,0.76258 -0.89898,1.03259 -0.27876,0.21347 -0.62021,0.30284 -0.89897,0.5163 -0.14984,0.1721 -0.29967,0.3442 -0.4495,0.5163 0,0.1721 0.10595,0.39461 0,0.51629 -0.10593,0.1217 -0.31547,-0.077 -0.44948,0 -0.53938,0.30979 -0.80908,1.23912 -1.34846,1.5489 -0.13402,0.077 -0.34355,-0.1217 -0.44949,0 -0.10595,0.12169 0.067,0.36236 0,0.5163 -0.93533,2.14869 0.031,-0.55195 -0.89898,0.51629 -0.10595,0.12169 0.10595,0.3946 0,0.5163 -0.10595,0.12169 -0.31547,-0.077 -0.44949,0 -0.18952,0.10884 -0.29965,0.3442 -0.44948,0.5163 -0.14983,0.1721 -0.35473,0.2986 -0.44949,0.51629 -0.067,0.15393 0.10594,0.39461 0,0.5163 -0.21189,0.24338 -0.63095,-0.15394 -0.89898,0 -1.87066,1.07435 0.48052,-0.0357 -0.44949,1.03259 -0.10594,0.1217 -0.31547,-0.077 -0.44948,0 -0.18952,0.10885 -0.29966,0.3442 -0.44949,0.5163 -0.14983,0.1721 -0.35473,0.29861 -0.44949,0.51629 -0.067,0.15394 0.10595,0.39461 0,0.5163 -0.21189,0.24339 -0.68708,-0.24338 -0.89898,0 -0.10594,0.1217 0.067,0.36237 0,0.5163 -0.0948,0.2177 -0.29966,0.34419 -0.44949,0.51629 -0.14982,0.17211 -0.25996,0.40746 -0.44948,0.51631 -0.13402,0.077 -0.31547,-0.077 -0.44949,0 -1.49076,1.71234 0.42378,-0.24339 -0.89897,0.5163 -0.18953,0.10884 -0.25997,0.40744 -0.4495,0.51629 -0.134,0.077 -0.31547,-0.077 -0.44948,0 -0.94966,-0.13449 -0.17072,0.81913 -0.44949,1.03259 -0.39422,0.30189 -0.95424,0.21442 -1.34846,0.5163 -0.12467,0.0955 0.10594,0.3946 0,0.5163 -0.10595,0.12168 -0.31548,-0.077 -0.44949,0 -0.61293,0.35201 -0.28604,0.68057 -0.89898,1.03259 -0.26802,0.15393 -0.68708,-0.24339 -0.89897,0 -0.93001,1.06824 1.42117,-0.0418 -0.44949,1.03259 -0.26802,0.15394 -0.68708,-0.24338 -0.89898,0 -0.10594,0.1217 0.10595,0.39461 0,0.5163 -0.10594,0.1217 -0.34354,-0.12169 -0.44948,0 -0.10595,0.1217 0.10594,0.39461 0,0.51629 -0.10595,0.1217 -0.31548,-0.077 -0.44949,0 -0.18952,0.10885 -0.25997,0.40746 -0.44949,0.5163 -0.13401,0.077 -0.31548,-0.077 -0.44948,0 -1.87067,1.07435 0.48051,-0.0357 -0.44949,1.0326 -0.10595,0.12169 -0.34355,-0.12169 -0.4495,0 -0.10593,0.12169 0.10595,0.3946 0,0.5163 -0.21188,0.24339 -0.68707,-0.24339 -0.89897,0 -0.93001,1.06823 1.42117,-0.0418 -0.44948,1.03259 -0.26803,0.15393 -0.68709,-0.24338 -0.89898,0 -0.10594,0.12169 0.10594,0.3946 0,0.5163 -0.93001,1.06823 0.0364,-1.63241 -0.89898,0.51629 -0.067,0.15393 0.10595,0.3946 0,0.5163 -0.21188,0.24339 -0.63095,-0.15393 -0.89897,0 -0.37905,0.21769 -0.51994,0.8149 -0.89898,1.03259 -0.13401,0.077 -0.34354,-0.12168 -0.44949,0 -0.10595,0.1217 0.10595,0.39461 0,0.5163 -0.21189,0.24339 -0.63095,-0.15392 -0.89897,0 -1.87067,1.07435 0.48051,-0.0357 -0.44949,1.03259 -0.22475,0.25815 -1.12372,-0.25815 -1.34847,0 -0.10595,0.1217 0.067,0.36237 0,0.5163 -0.93533,2.14871 0.0311,-0.55194 -0.89897,0.51629 -0.10595,0.1217 0.10595,0.39461 0,0.51631 -0.2119,0.24338 -0.63095,-0.15393 -0.89897,0 -1.870673,1.07434 0.48051,-0.0357 -0.4495,1.03259 -0.10594,0.12169 -0.343543,-0.12169 -0.449493,0 -0.10594,0.12169 0.10595,0.3946 0,0.5163 -0.21188,0.24339 -0.68708,-0.24339 -0.89897,0 -0.10594,0.12169 0,0.3442 0,0.5163 -0.14983,0 -0.31548,-0.077 -0.44949,0 -0.18952,0.10884 -0.25996,0.40744 -0.44949,0.51629 -0.13401,0.077 -0.34354,-0.1217 -0.44948,0 -0.10595,0.12169 0.10594,0.3946 0,0.5163 -0.10595,0.12169 -0.31548,-0.077 -0.44949,0 -0.18952,0.10884 -0.25997,0.40745 -0.44949,0.5163 -0.13401,0.077 -0.34354,-0.12169 -0.44949,0 -0.10594,0.12168 0.10595,0.3946 0,0.51629 -0.15038,0.17273 -0.74859,-0.17273 -0.89897,0 -0.10595,0.1217 0.10594,0.39461 0,0.5163 -0.10595,0.1217 -0.34355,-0.12169 -0.44949,0 -0.10595,0.1217 0.10594,0.39461 0,0.51629 -0.10595,0.1217 -0.31548,-0.077 -0.44949,0 -0.18952,0.10885 -0.25997,0.40746 -0.44949,0.5163 -0.13401,0.077 -0.31547,-0.077 -0.44948,0 -0.18953,0.10885 -0.25997,0.40746 -0.44949,0.5163 -0.13401,0.077 -0.34355,-0.12169 -0.44949,0 -0.10595,0.12169 0.10594,0.39461 0,0.51629 -0.21189,0.24339 -0.68709,-0.24338 -0.89898,0 -0.10594,0.1217 0.10595,0.39461 0,0.5163 -0.10594,0.1217 -0.31547,-0.077 -0.44948,0 -0.18952,0.10885 -0.25997,0.40746 -0.44949,0.51631 -0.13401,0.077 -0.34354,-0.1217 -0.44949,0 -0.10594,0.12168 0.10595,0.39459 0,0.51629 -0.22474,0.25815 -1.12372,-0.25815 -1.34846,0 -0.10595,0.12169 0.10594,0.3946 0,0.5163 -0.21189,0.24338 -0.68709,-0.24339 -0.89898,0 -0.10594,0.12169 0.10595,0.3946 0,0.51629 -0.21189,0.24339 -0.63095,-0.15393 -0.89898,0 -0.18952,0.10884 -0.25996,0.40745 -0.44948,0.5163 -0.11819,0.0679 -1.56291,0 -1.79795,0 -0.31264,0 -2.08489,0.0933 -2.24744,0 -0.18952,-0.10885 -0.25997,-0.40746 -0.44949,-0.5163 -0.13401,-0.077 -0.34354,0.12169 -0.44949,0 -0.10595,-0.12169 0.10595,-0.3946 0,-0.51629 -0.93001,-1.06824 0.0363,1.6324 -0.89898,-0.5163 -0.067,-0.15393 0.10595,-0.39461 0,-0.51629 -0.10594,-0.1217 -0.34354,0.12168 -0.44948,0 -0.10595,-0.1217 0.10594,-0.39461 0,-0.51631 -0.21189,-0.24339 -0.68709,0.24338 -0.89898,0 -0.93001,-1.06823 1.42117,0.0418 -0.44949,-1.03259 -0.26802,-0.15393 -0.68708,0.24338 -0.89897,0 -0.10595,-0.12169 0.10594,-0.3946 0,-0.5163 -0.10595,-0.12169 -0.34355,0.1217 -0.44949,0 -0.10595,-0.12169 0.10594,-0.3946 0,-0.5163 -0.10595,-0.12168 -0.34354,0.1217 -0.44949,0 -0.10594,-0.12168 0.10595,-0.39459 0,-0.51629 -0.10594,-0.12169 -0.34354,0.1217 -0.44949,0 -0.10594,-0.12169 0.067,-0.36236 0,-0.5163 -0.0948,-0.21769 -0.35472,-0.29861 -0.44948,-0.51629 -0.067,-0.15394 0.11986,-0.41305 0,-0.5163 -0.53605,-0.4618 -1.19864,-0.6884 -3.59591,-2.06519 z"
       id="path2836" />
  </g>
</svg>
