<?xml version="1.0" encoding="UTF-8" standalone="no"?>
<!-- Created with Inkscape (http://www.inkscape.org/) -->

<svg
   xmlns:dc="http://purl.org/dc/elements/1.1/"
   xmlns:cc="http://creativecommons.org/ns#"
   xmlns:rdf="http://www.w3.org/1999/02/22-rdf-syntax-ns#"
   xmlns:svg="http://www.w3.org/2000/svg"
   xmlns="http://www.w3.org/2000/svg"
   xmlns:xlink="http://www.w3.org/1999/xlink"
   xmlns:sodipodi="http://sodipodi.sourceforge.net/DTD/sodipodi-0.dtd"
   xmlns:inkscape="http://www.inkscape.org/namespaces/inkscape"
   width="256"
   height="256"
   id="svg2"
   version="1.1"
   inkscape:version="0.47 r22583"
   sodipodi:docname="off.svg"
   inkscape:export-filename="C:\Users\Christophe\Documents\svn\pwdhash-chrome\trunk\images\off32.png"
   inkscape:export-xdpi="11.25"
   inkscape:export-ydpi="11.25">
  <defs
     id="defs4">
    <linearGradient
       id="linearGradient5095">
      <stop
         style="stop-color:#d8ac37;stop-opacity:1;"
         offset="0"
         id="stop5097" />
      <stop
         id="stop5103"
         offset="1"
         style="stop-color:#e3dccd;stop-opacity:1;" />
    </linearGradient>
    <inkscape:perspective
       sodipodi:type="inkscape:persp3d"
       inkscape:vp_x="0 : 526.18109 : 1"
       inkscape:vp_y="0 : 1000 : 0"
       inkscape:vp_z="744.09448 : 526.18109 : 1"
       inkscape:persp3d-origin="372.04724 : 350.78739 : 1"
       id="perspective10" />
    <inkscape:perspective
       id="perspective2824"
       inkscape:persp3d-origin="0.5 : 0.33333333 : 1"
       inkscape:vp_z="1 : 0.5 : 1"
       inkscape:vp_y="0 : 1000 : 0"
       inkscape:vp_x="0 : 0.5 : 1"
       sodipodi:type="inkscape:persp3d" />
    <linearGradient
       inkscape:collect="always"
       xlink:href="#linearGradient5095"
       id="linearGradient5101"
       x1="59.093925"
       y1="132.1132"
       x2="79.140663"
       y2="113.26447"
       gradientUnits="userSpaceOnUse"
       gradientTransform="matrix(3.4261541,0,0,2.4980231,-36.595637,670.50129)" />
    <inkscape:perspective
       id="perspective3741"
       inkscape:persp3d-origin="0.5 : 0.33333333 : 1"
       inkscape:vp_z="1 : 0.5 : 1"
       inkscape:vp_y="0 : 1000 : 0"
       inkscape:vp_x="0 : 0.5 : 1"
       sodipodi:type="inkscape:persp3d" />
  </defs>
  <sodipodi:namedview
     id="base"
     pagecolor="#ffffff"
     bordercolor="#666666"
     borderopacity="1.0"
     inkscape:pageopacity="0.0"
     inkscape:pageshadow="2"
     inkscape:zoom="1.979899"
     inkscape:cx="7.5022972"
     inkscape:cy="152.78913"
     inkscape:document-units="px"
     inkscape:current-layer="layer1"
     showgrid="false"
     showguides="true"
     inkscape:guide-bbox="true"
     inkscape:window-width="1455"
     inkscape:window-height="896"
     inkscape:window-x="171"
     inkscape:window-y="37"
     inkscape:window-maximized="0" />
  <metadata
     id="metadata7">
    <rdf:RDF>
      <cc:Work
         rdf:about="">
        <dc:format>image/svg+xml</dc:format>
        <dc:type
           rdf:resource="http://purl.org/dc/dcmitype/StillImage" />
        <dc:title></dc:title>
      </cc:Work>
    </rdf:RDF>
  </metadata>
  <g
     inkscape:label="Calque 1"
     inkscape:groupmode="layer"
     id="layer1"
     transform="translate(0,-796.36218)">
    <path
       style="fill:#ff0303;fill-opacity:1;stroke:#f10600;stroke-width:1.78443933px;stroke-linecap:butt;stroke-linejoin:miter;stroke-opacity:1"
       d="m 73.255775,834.83503 c -4.81914,0 -9.63828,0 -14.457398,0 -0.587247,0 -3.143174,-0.14526 -3.401737,0 -0.35857,0.20136 -0.49186,0.7538 -0.850441,0.95517 -0.253542,0.14236 -0.596886,-0.14234 -0.850428,0 -0.358581,0.20136 -0.491859,0.7538 -0.85044,0.95518 -0.507097,0.28476 -1.299962,-0.4503 -1.700869,0 -0.200448,0.22512 0.200459,0.73 0,0.95515 -0.400895,0.45027 -1.193772,-0.28477 -1.700869,0 -0.358574,0.20136 -0.49185,0.75379 -0.850434,0.95515 -0.253554,0.14234 -0.596879,-0.14234 -0.850432,0 -3.53931,1.98757 0.909152,-0.0659 -0.850431,1.91033 -0.20045,0.22513 -0.596892,-0.14234 -0.850444,0 -0.358571,0.20136 -0.566961,0.63679 -0.850436,0.95516 -0.283479,0.3184 -0.67114,0.55243 -0.850431,0.95514 -0.126756,0.2848 0.126753,0.6704 0,0.95519 -0.358571,0.80545 -1.342294,1.10484 -1.700864,1.91031 -0.253552,0.56954 0.253539,1.34078 0,1.91033 -0.179291,0.40273 -0.671152,0.55244 -0.850444,0.95517 -0.126755,0.2848 0.126754,0.67037 0,0.95517 -0.179278,0.40273 -0.671139,0.55242 -0.850431,0.95514 -0.267259,0.60033 0.267259,3.22032 0,3.82066 -0.179292,0.40274 -0.671154,0.55244 -0.850431,0.95515 -0.109956,0.24697 0,5.05397 0,5.73098 0,0.31838 -0.200451,0.73004 0,0.95516 0.200451,0.22516 0.64998,-0.22512 0.850431,0 0.400902,0.45028 -0.400903,1.46006 0,1.91033 0.20045,0.22513 0.64998,-0.22515 0.850431,0 0.173857,0.19526 -0.168594,2.48677 0,2.86548 0.179292,0.40274 0.671153,0.55243 0.850444,0.95515 0.126756,0.28477 -0.20045,0.73002 0,0.95519 0.200437,0.22512 0.649981,-0.22517 0.850432,0 0.200451,0.22512 -0.126755,0.67036 0,0.95515 0.179277,0.40274 0.671139,0.55244 0.850432,0.95515 0.126753,0.28479 -0.200452,0.73002 0,0.95517 1.759586,1.97626 -0.06875,-3.01999 1.700867,0.95516 0.126754,0.28476 -0.126755,0.67039 0,0.95515 0.940189,2.11191 0.527825,0.29642 1.700875,0.95518 0.836853,0.46995 2.564886,3.35068 3.401735,3.82063 0.253554,0.14235 0.596886,-0.14236 0.85044,0 0.35857,0.20137 0.491859,0.75381 0.850429,0.95516 0.253554,0.14236 0.596886,-0.14233 0.85044,0 0.358569,0.20138 0.491859,0.7538 0.850428,0.95518 0.253554,0.14232 0.596886,-0.14236 0.850441,0 0.717149,0.40272 0.983718,1.50758 1.700869,1.91032 0.253542,0.14233 0.581498,-0.10059 0.850428,0 0.601342,0.22512 1.099524,0.73003 1.700872,0.95515 0.268934,0.10059 0.596886,-0.14235 0.850436,0 0.35857,0.20138 0.49184,0.7538 0.85044,0.95518 0.25355,0.14234 0.59687,-0.14236 0.85043,0 0.35857,0.20134 0.49186,0.75378 0.85043,0.95515 0.25355,0.14235 0.56695,0 0.85044,0 0.56696,0 1.16301,-0.20137 1.70086,0 0.38034,0.14235 0.49186,0.75381 0.85044,0.95515 0.25356,0.14233 0.5815,-0.1006 0.85043,0 6.16007,2.30623 -1.34078,-0.27535 2.55132,1.91034 0.25353,0.14233 0.59688,-0.14235 0.85043,0 0.35857,0.20137 0.49187,0.75378 0.85045,0.95514 0.68034,0.38207 1.87094,-0.38207 2.55129,0 0.35859,0.20138 0.49185,0.75381 0.85044,0.95517 0.25355,0.14234 0.59686,-0.14234 0.85043,0 0.35857,0.20136 0.49185,0.7538 0.85043,0.95517 0.25355,0.14235 0.56695,0 0.85042,0 0.56695,0 1.16303,-0.20137 1.70088,0 0.57589,0.21559 1.90166,2.50066 2.5513,2.86549 0.50709,0.28477 1.19376,-0.28479 1.70087,0 2.82053,3.16786 -0.80181,-0.45028 1.70087,0.95515 0.71715,0.40273 0.98372,1.5076 1.70087,1.91031 0.5071,0.28478 1.19376,-0.28475 1.70086,0 0.35857,0.20136 0.51687,0.7054 0.85043,0.95519 0.52742,0.39489 1.17346,0.56022 1.70088,0.95515 0.33356,0.24976 0.49187,0.75378 0.85044,0.95515 0.25355,0.14235 0.59687,-0.14233 0.85043,0 0.35857,0.20137 0.4701,0.81278 0.85042,0.95518 0.53788,0.20137 1.19377,-0.2848 1.70088,0 0.25356,0.14233 -0.20048,0.73003 0,0.95514 3.31901,3.72775 0.45671,-0.22107 2.55131,0.95517 0.71715,0.40274 0.98371,1.50761 1.70085,1.91032 0.25356,0.14234 0.649985,-0.22512 0.850435,0 0.20046,0.22514 -0.20045,0.73003 0,0.95516 0.20046,0.22513 0.5969,-0.14233 0.85044,0 0.71715,0.40274 1.03372,1.4108 1.70086,1.91032 0.56696,0.31838 1.13391,0.63678 1.70086,0.95518 0.2835,0 0.59689,-0.14236 0.85046,0 0.64964,0.36482 1.97541,2.64987 2.5513,2.86547 0.53784,0.20137 1.163,-0.20136 1.70086,0 0.57588,0.21558 1.90168,2.50068 2.5513,2.8655 2.09458,1.17627 -0.76771,-2.7726 2.55132,0.95515 0.20043,0.22513 -0.20045,0.73002 0,0.95516 3.31901,3.72774 0.45673,-0.22109 2.55131,0.95516 0.71714,0.40273 1.03371,1.41081 1.70085,1.91032 0.5274,0.39491 1.17346,0.56026 1.70087,0.95515 0.33357,0.24978 0.51686,0.70542 0.85043,0.95518 0.52741,0.39492 1.13391,0.63678 1.70087,0.95516 0.56697,0.31839 1.09952,0.73005 1.70087,0.95516 0.26894,0.10059 0.64999,-0.22511 0.85044,0 0.20046,0.22513 -0.12676,0.67037 0,0.95516 0.17928,0.40274 0.56695,0.63678 0.85041,0.95517 0.28351,0.31838 0.49189,0.75378 0.85045,0.95517 0.25358,0.14234 0.64999,-0.22516 0.85045,0 0.20043,0.22511 -0.20046,0.73003 0,0.95515 0.20043,0.22514 0.58149,-0.10059 0.85041,0 0.60136,0.22514 1.17345,0.56025 1.7009,0.95514 0.66712,0.49953 0.98369,1.50762 1.70085,1.91034 0.25354,0.14235 0.64998,-0.22514 0.85041,0 1.7596,1.97627 -2.68886,-0.0774 0.85046,1.91033 0.25356,0.14233 0.59687,-0.14234 0.85043,0 0.35858,0.20143 0.49186,0.75383 0.85043,0.95521 0.25356,0.14233 0.64999,-0.22516 0.85044,0 1.75957,1.97614 -2.68888,-0.0777 0.85045,1.91015 0.50709,0.28485 1.19376,-0.28468 1.70086,0 1.02053,0.5731 1.53079,2.29239 2.55131,2.86549 0.25354,0.14234 0.64998,-0.22502 0.85041,0 1.75958,1.97633 -2.68886,-0.0777 0.85046,1.91032 0.50709,0.28486 1.29996,-0.45016 1.70085,0 0.20045,0.22518 -0.12675,0.67048 0,0.95517 0.17929,0.4027 0.56697,0.63684 0.85044,0.95509 0.28349,0.31852 0.49187,0.75384 0.85045,0.95515 0.25354,0.14245 0.64997,-0.22498 0.85042,0 1.75957,1.97633 -2.68887,-0.0771 0.85044,1.9104 0.50709,0.28477 1.29995,-0.4502 1.70087,0 0.40089,0.45024 -0.25355,1.3409 0,1.91044 1.76964,3.97533 -0.0588,-1.02121 1.70085,0.95515 0.20045,0.22511 -0.12675,0.67051 0,0.95514 0.27087,0.60864 3.58393,4.02531 4.25216,4.77575 0.2835,0.31864 0.67117,0.55266 0.85046,0.95527 0.12676,0.2849 -0.12676,0.67051 0,0.95515 0.35857,0.80564 1.34227,1.10505 1.70086,1.91033 0.12676,0.2847 -0.20044,0.7301 0,0.9553 0.20046,0.2249 0.59688,-0.1425 0.85044,0 0.35858,0.2013 0.56696,0.63673 0.85044,0.95503 0.28347,0.3184 0.67114,0.5525 0.85043,0.9554 0.12675,0.2846 -0.12676,0.6702 0,0.9551 0.17928,0.4027 0.56695,0.6367 0.85042,0.9551 0.28351,0.3185 0.49189,0.754 0.85045,0.9553 0.25353,0.1423 0.72366,-0.2848 0.85044,0 0.25355,0.5695 -0.1793,1.306 0,1.9103 0.88482,2.9813 0.56695,-0.3185 1.70085,0.9551 0.44822,0.5034 0.64998,1.2348 0.85046,1.9104 0.0896,0.302 -0.20048,0.73 0,0.955 0.20044,0.2251 0.64998,-0.225 0.85042,0 0.20045,0.2251 -0.20044,0.7303 0,0.9553 0.20045,0.225 0.64998,-0.225 0.85043,0 0.40091,0.4502 -0.40088,1.46 0,1.9104 0.20046,0.2251 0.64998,-0.2253 0.85042,0 0.20049,0.2251 -0.12674,0.6701 0,0.9551 0.3586,0.8054 1.34231,1.1049 1.70088,1.9104 0.12677,0.2848 -0.12675,0.6703 0,0.955 1.76966,3.9752 -0.0588,-1.021 1.70088,0.9553 0.20044,0.2249 -0.12676,0.6703 0,0.9551 0.17927,0.4026 0.67115,0.5524 0.85043,0.9552 0.12674,0.2847 -0.12677,0.6703 0,0.9551 0.17929,0.4027 0.67115,0.5525 0.85043,0.9553 0.12677,0.2846 -0.20044,0.73 0,0.955 0.20044,0.225 0.64998,-0.225 0.85044,0 0.20045,0.225 -0.20046,0.73 0,0.9551 0.20045,0.2252 0.64997,-0.2251 0.85043,0 0.40089,0.4503 -0.25355,1.341 0,1.9104 1.76964,3.9752 -0.0588,-1.021 1.70088,0.9552 0.4009,0.4502 -0.4009,1.46 0,1.9104 0.20044,0.225 0.64998,-0.2253 0.85042,0 0.20044,0.225 -0.20044,0.7299 0,0.9551 0.20044,0.225 0.65,-0.2252 0.85045,0 0.20044,0.225 -0.12676,0.6703 0,0.955 0.51026,1.1462 2.04104,1.7193 2.55129,2.8656 0.12677,0.2848 -0.20047,0.7301 0,0.955 0.20046,0.2253 0.64998,-0.2249 0.85044,0 0.20045,0.2253 -0.20046,0.7301 0,0.9552 0.20045,0.2252 0.64999,-0.2251 0.85043,0 0.20044,0.2252 -0.20044,0.73 0,0.9553 0.20044,0.2249 0.64997,-0.2253 0.85043,0 0.40092,0.45 -0.40089,1.46 0,1.9103 0.20047,0.225 0.64999,-0.2253 0.85043,0 0.20046,0.225 -0.20044,0.7301 0,0.955 0.20046,0.2251 0.65001,-0.2249 0.85045,0 0.20044,0.2251 -0.20044,0.7299 0,0.9553 0.20044,0.2251 0.64998,-0.2254 0.85042,0 0.40089,0.4502 -0.40091,1.4601 0,1.9101 0.20046,0.2253 0.64999,-0.225 0.85045,0 0.20043,0.2253 -0.20046,0.7302 0,0.9553 0.20043,0.2251 0.64997,-0.2251 0.85044,0 0.20044,0.2251 -0.20047,0.7299 0,0.95506 0.20044,0.2253 0.64997,-0.22516 0.85043,0 0.20044,0.2253 -0.12677,0.6704 0,0.9552 0.17928,0.4028 0.67114,0.5525 0.85042,0.9551 0.12676,0.285 -0.20043,0.7303 0,0.9553 0.20046,0.2251 0.64999,-0.225 0.85043,0 0.20047,0.2251 -0.12675,0.6703 0,0.9551 0.17929,0.4028 0.67115,0.5525 0.85045,0.9551 0.56694,1.2736 -0.85045,0.9553 0.85043,0.9553 2.26781,0 -0.28349,-0.3185 0.85042,0.9551 0.20046,0.2253 0.65,-0.2252 0.85045,0 0.20043,0.2253 -0.20045,0.7301 0,0.9552 0.20043,0.2251 0.56694,0 0.85042,0 0.2835,0 0.56697,0 0.85044,0 1.41739,0 2.83479,0 4.25218,0 0.28348,0 0.64998,0.2251 0.85044,0 0.20044,-0.2251 -0.20046,-0.7299 0,-0.9552 0.40089,-0.4502 1.29996,0.4504 1.70086,0 0.40088,-0.4502 -0.4009,-1.4601 0,-1.9104 0.20045,-0.2251 0.64999,0.2253 0.85045,0 0.20043,-0.2251 -0.20046,-0.7299 0,-0.9551 0.20043,-0.2251 0.64996,0.2252 0.85041,0 0.29853,-0.3351 -0.2937,-4.11596 0,-4.77576 0.1793,-0.4026 0.67116,-0.5524 0.85046,-0.9553 0.10998,-0.2467 0,-5.0537 0,-5.7307 0,-0.6771 0.10998,-5.4842 0,-5.7311 -2.82057,-3.1676 0.40087,0.9006 -0.85046,-1.9101 -0.17928,-0.4028 -0.67115,-0.5526 -0.85041,-0.9553 -0.16861,-0.3788 0.17384,-2.6702 0,-2.8654 -0.20046,-0.2251 -0.65,0.225 -0.85045,0 -0.20044,-0.2251 0.12676,-0.6706 0,-0.9553 -0.17928,-0.4027 -0.67115,-0.5524 -0.85044,-0.9551 -0.12676,-0.2847 0.20046,-0.7301 0,-0.955 -0.20045,-0.2253 -0.64998,0.2249 -0.85042,0 -0.4009,-0.4504 0.25353,-1.341 0,-1.9104 -1.76966,-3.9753 0.0588,1.0209 -1.7009,-0.9552 -0.40088,-0.4503 0.40092,-1.4601 0,-1.9104 -0.2004,-0.2251 -0.64995,0.2253 -0.8504,0 -0.40091,-0.4502 0.25352,-1.3408 0,-1.9101 -0.17929,-0.4029 -0.56695,-0.6368 -0.85046,-0.9553 -0.28347,0 -0.72365,0.2847 -0.85041,0 -0.25358,-0.5697 0,-1.2737 0,-1.9103 0,-0.3185 0.20043,-0.7302 0,-0.9552 -0.20045,-0.225 -0.65,0.225 -0.85045,0 -1.75957,-1.9762 2.68888,0.077 -0.85044,-1.9103 -0.25354,-0.1422 -0.64999,0.225 -0.85042,0 -0.4009,-0.4503 0.25354,-1.3407 0,-1.9104 -0.78284,-1.7585 -1.76848,-0.152 -2.5513,-1.9104 -0.25355,-0.5695 0.40088,-1.46 0,-1.9103 -0.20046,-0.225 -0.59689,0.1424 -0.85045,0 -1.88035,-1.056 -0.2639,-0.5929 -0.85043,-1.9102 -0.51025,-1.1464 -2.04104,-1.71963 -2.55129,-2.86573 -0.12676,-0.2848 0.20043,-0.72993 0,-0.95504 -0.20046,-0.22512 -0.59689,0.14218 -0.85045,0 -3.53931,-1.98762 0.90914,0.0667 -0.85042,-1.91044 -0.20044,-0.22498 -0.56695,0 -0.85045,0 0,-0.31838 0.12677,-0.67038 0,-0.95527 -1.76965,-3.97508 0.0588,1.0212 -1.70086,-0.95502 -0.20044,-0.22512 0.12675,-0.67039 0,-0.95515 -0.17928,-0.40276 -0.67115,-0.55253 -0.85043,-0.95528 -0.12676,-0.28463 0.20045,-0.7299 0,-0.95502 -0.20046,-0.22524 -0.59689,0.14232 -0.85044,0 -1.88037,-1.056 -0.26389,-0.59282 -0.85042,-1.91042 -1.76967,-3.97521 0.0588,1.02119 -1.70087,-0.95515 -0.20045,-0.22513 0.20044,-0.73017 0,-0.95529 -0.20045,-0.22499 -0.65001,0.22512 -0.85045,0 -0.20044,-0.22499 0.12676,-0.67038 0,-0.95515 -0.35857,-0.80535 -1.3423,-1.10476 -1.70087,-1.9104 -0.12676,-0.28465 0,-0.63663 0,-0.95516 -0.28347,-0.31824 -0.67113,-0.55238 -0.85043,-0.95508 -0.12676,-0.28469 0.20046,-0.73001 0,-0.95517 -0.20046,-0.22515 -0.59688,0.14235 -0.85043,0 -3.53931,-1.98749 0.90915,0.0665 -0.85044,-1.91033 -0.20044,-0.22501 -0.64998,0.22517 -0.85043,0 -0.20046,-0.22501 0.20045,-0.72999 0,-0.95516 -1.75957,-1.97616 0.0688,3.02012 -1.70088,-0.95515 -0.25354,-0.56953 0.4009,-1.46001 0,-1.91017 -0.40089,-0.45031 -1.29997,0.45016 -1.70086,0 -0.20044,-0.22517 0.12675,-0.67047 0,-0.95515 -0.17929,-0.40278 -0.67115,-0.5524 -0.85045,-0.95521 -0.12674,-0.28478 0.20049,-0.73003 0,-0.95516 -0.20044,-0.22514 -0.64996,0.22513 -0.85042,0 -1.75958,-1.97628 2.68886,0.0773 -0.85043,-1.91034 -1.17307,-0.65876 -0.76068,1.15676 -1.70088,-0.95518 -0.12675,-0.28474 0.20046,-0.73 0,-0.95513 -0.20043,-0.22512 -0.64999,0.22514 -0.85042,0 -0.20046,-0.22512 0.12675,-0.67037 0,-0.95515 -0.27085,-0.60844 -3.58393,-4.02531 -4.25217,-4.77582 -0.28348,-0.31841 -0.67116,-0.55244 -0.85044,-0.95519 -0.12675,-0.28474 0.20046,-0.72998 0,-0.95514 -0.20047,-0.22513 -0.59689,0.14236 -0.85044,0 -3.53929,-1.98759 0.90916,0.0661 -0.85044,-1.91032 -0.20044,-0.22511 -0.64997,0.22513 -0.85042,0 -0.20045,-0.22511 0.12676,-0.67039 0,-0.95516 -1.76965,-3.97516 0.0588,1.0211 -1.70087,-0.95516 -0.20045,-0.22512 0.12676,-0.6704 0,-0.95515 -1.76967,-3.97515 0.0588,1.02109 -1.70087,-0.95518 -0.20044,-0.22514 0.12675,-0.67039 0,-0.95518 -0.17928,-0.40271 -0.56695,-0.63674 -0.85042,-0.95514 -0.2835,-0.31838 -0.4919,-0.75378 -0.85046,-0.95515 -0.25352,-0.14234 -0.64999,0.22513 -0.85043,0 -0.4009,-0.45026 0.40091,-1.46007 0,-1.91032 -0.20045,-0.22515 -0.64997,0.22513 -0.85042,0 -0.20045,-0.22515 0.20045,-0.73005 0,-0.95518 -0.40092,-0.45025 -1.29998,0.45029 -1.70087,0 -0.40091,-0.45025 0.40089,-1.46003 0,-1.91032 -0.20047,-0.22513 -0.59689,0.14234 -0.85044,0 -3.5393,-1.98756 0.90915,0.0661 -0.85042,-1.91031 -0.20047,-0.22514 -0.64999,0.22514 -0.85045,0 -0.20045,-0.22514 0.20046,-0.73003 0,-0.95517 -0.4009,-0.45025 -1.29997,0.45027 -1.70086,0 -0.40091,-0.45025 0.40089,-1.46006 0,-1.91031 -0.20045,-0.22515 -0.64999,0.22512 -0.85043,0 -0.20047,-0.22515 0.20044,-0.73005 0,-0.95518 -0.40091,-0.45026 -1.29999,0.45028 -1.70087,0 -0.20046,-0.22512 0.12675,-0.6704 0,-0.95515 -0.0813,-0.18286 -3.23897,-3.72923 -3.40176,-3.82065 -0.25354,-0.14234 -0.64998,0.22514 -0.85041,0 -0.20046,-0.22514 0.20043,-0.73004 0,-0.95516 -0.20046,-0.22513 -0.59691,0.14235 -0.85045,0 -0.71715,-0.40271 -0.98373,-1.50759 -1.70087,-1.91033 -0.25356,-0.14235 -0.64998,0.22512 -0.85043,0 -0.20046,-0.22513 0.20045,-0.73001 0,-0.95515 -0.20046,-0.22512 -0.64998,0.22514 -0.85046,0 -0.40088,-0.45028 0.40093,-1.46007 0,-1.91036 -0.40088,-0.45023 -1.29992,0.45029 -1.70085,0 -0.20045,-0.22512 0.20045,-0.72999 0,-0.95513 -0.20045,-0.22512 -0.64998,0.22514 -0.85041,0 -0.20046,-0.22512 0.20043,-0.73003 0,-0.95517 -0.20046,-0.22513 -0.65001,0.22514 -0.85046,0 -0.20044,-0.22513 0.20045,-0.73004 0,-0.95516 -0.20044,-0.22512 -0.64999,0.22512 -0.85044,0 -0.20044,-0.22512 0.20045,-0.73 0,-0.95515 -0.20044,-0.22512 -0.64998,0.22515 -0.85041,0 -0.20046,-0.22512 0,-0.6368 0,-0.95517 -0.28348,0 -0.59687,0.14236 -0.85045,0 -1.7226,-0.96738 0.1507,-2.86551 -2.5513,-2.86551 -2.26783,0 0.28348,0.31842 -0.85043,-0.95513 -0.20044,-0.22514 -0.64998,0.22515 -0.85044,0 -0.20045,-0.22514 0.20046,-0.73002 0,-0.95518 -0.4009,-0.45025 -1.29997,0.45028 -1.70087,0 -0.20043,-0.22513 0.20044,-0.73002 0,-0.95515 -0.20043,-0.22512 -0.64998,0.22513 -0.85043,0 -0.20046,-0.22512 0.20045,-0.73 0,-0.95516 -0.20046,-0.22512 -0.64998,0.22516 -0.85044,0 -0.20043,-0.22512 0.20046,-0.73005 0,-0.95517 -0.4009,-0.45026 -1.29996,0.45028 -1.70087,0 -0.20046,-0.22512 0.20045,-0.73001 0,-0.95514 -0.20046,-0.22513 -0.64997,0.22513 -0.85041,0 -1.75961,-1.97626 2.68885,0.0773 -0.85046,-1.91034 -0.5071,-0.28476 -1.29998,0.45026 -1.70085,0 -1.75959,-1.97625 2.68887,0.0773 -0.85045,-1.91031 -0.25353,-0.14234 -0.59689,0.14233 -0.85043,0 -0.71715,-0.40274 -0.98372,-1.5076 -1.70086,-1.91032 -0.25356,-0.14235 -0.65,0.22514 -0.85044,0 -0.20044,-0.22513 0.20044,-0.73004 0,-0.95516 -0.20044,-0.22516 -0.59689,0.14234 -0.85044,0 -0.35857,-0.20137 -0.49186,-0.75381 -0.85043,-0.95518 -0.25355,-0.14233 -0.64999,0.22515 -0.85043,0 -1.75959,-1.97625 2.68888,0.0774 -0.85045,-1.91032 -0.50708,-0.28476 -1.29997,0.45027 -1.70085,0 -0.20045,-0.22511 0.20043,-0.73005 0,-0.95515 -0.20045,-0.22513 -0.59688,0.14234 -0.85046,0 -0.35857,-0.20139 -0.49185,-0.75381 -0.8504,-0.95516 -0.25358,-0.14235 -0.65001,0.22513 -0.85046,0 -0.20044,-0.22516 0.20045,-0.73005 0,-0.95517 -0.20044,-0.22513 -0.59688,0.14234 -0.85042,0 -0.71715,-0.40271 -0.98372,-1.50759 -1.70088,-1.91032 -0.507085,-0.28477 -1.299975,0.45029 -1.700865,0 -0.20045,-0.22514 0.12676,-0.67041 0,-0.95516 -1.76965,-3.97515 0.0588,1.0211 -1.70087,-0.95516 -0.20044,-0.22515 0.20044,-0.73003 0,-0.95518 -0.40088,-0.45024 -1.29997,0.45026 -1.70086,0 -0.20048,-0.22512 0.20046,-0.73003 0,-0.95515 -0.20048,-0.22513 -0.65,0.22512 -0.85042,0 -0.20047,-0.22513 0.20042,-0.73002 0,-0.95516 -0.40091,-0.45025 -1.29999,0.45029 -1.70088,0 -0.20044,-0.22513 0.20044,-0.73005 0,-0.95517 -0.20044,-0.22512 -0.64999,0.22512 -0.85043,0 -0.40092,-0.45027 0.40087,-1.46004 0,-1.91031 -0.40092,-0.45026 -1.29997,0.45027 -1.70088,0 -0.20044,-0.22514 0.20044,-0.73002 0,-0.95515 -0.20044,-0.22515 -0.64998,0.22513 -0.85044,0 -0.20044,-0.22515 0.20046,-0.73006 0,-0.95518 -0.20044,-0.22514 -0.64998,0.22512 -0.85043,0 -0.20043,-0.22514 0.20045,-0.73002 0,-0.95517 -0.20043,-0.22511 -0.64998,0.22515 -0.85044,0 -1.75956,-1.97625 2.68889,0.0773 -0.85042,-1.91031 -0.25356,-0.14234 -0.65,0.22513 -0.85045,0 -0.20042,-0.22514 0.20045,-0.73002 0,-0.95517 -0.20042,-0.22512 -0.64996,0.22515 -0.85042,0 -0.4009,-0.45025 0.40089,-1.46004 0,-1.91033 -0.20047,-0.22514 -0.64998,0.22513 -0.85044,0 -0.20045,-0.22514 0.20046,-0.73002 0,-0.95516 -0.20045,-0.22512 -0.65,0.22514 -0.85043,0 -0.40089,-0.45027 0.40089,-1.46005 0,-1.91034 -0.40089,-0.45025 -1.29998,0.45029 -1.70087,0 0,-2.54709 0.28348,0.31841 -0.85043,-0.95514 -0.28452,-0.31956 0.28452,-1.59077 0,-1.91033 -1.2835,-1.44156 -2.8348,-2.54709 -7.6539,-4.77581 z"
       id="path3611" />
    <path
       style="fill:#ff0000;fill-opacity:1;stroke:#ff0000;stroke-width:1.42203343px;stroke-linecap:butt;stroke-linejoin:miter;stroke-opacity:1"
       d="m 163.08805,880.6553 c -0.25008,0 -0.52654,-0.10257 -0.7502,0 -0.3163,0.14497 -0.50013,0.45843 -0.75019,0.68764 -0.44124,0.40441 -2.65341,2.59132 -3.0008,2.75054 -0.22365,0.10244 -0.57338,-0.16209 -0.75019,0 -0.63756,0.58437 -1.09718,1.32372 -1.5004,2.0629 -0.11183,0.20502 0.22367,0.58513 0,0.68764 -0.44732,0.20501 -1.02592,-0.14497 -1.50039,0 -0.33551,0.10257 -0.50014,0.45841 -0.75019,0.68763 -0.25006,0.22921 -0.59205,0.39771 -0.7502,0.68764 -0.11183,0.20501 0.11183,0.48262 0,0.68765 -0.0995,0.18256 -2.05141,1.9716 -2.25059,2.06289 -0.22366,0.10257 -0.57338,-0.16207 -0.7502,0 -0.39538,0.36241 -0.3548,1.01286 -0.75019,1.37528 -0.17683,0.16206 -0.57337,-0.16209 -0.7502,0 -0.17683,0.16206 0.11183,0.48262 0,0.68762 -0.15816,0.28993 -0.50014,0.45843 -0.75019,0.68765 -0.25007,0.22921 -0.43389,0.54267 -0.7502,0.68764 -0.22367,0.10256 -0.52654,-0.10257 -0.75021,0 -0.3163,0.14496 -0.50012,0.45841 -0.75018,0.68762 -0.25007,0.22922 -0.59205,0.39772 -0.75021,0.68765 -0.11183,0.205 0.17682,0.52556 0,0.68762 -0.39539,0.36242 -1.03514,0.40334 -1.50039,0.68765 -0.31799,0.1943 -2.09539,1.77838 -2.25059,2.0629 -0.11183,0.205 0.22366,0.58513 0,0.68764 -0.44733,0.20501 -1.05305,-0.20502 -1.50039,0 -0.22367,0.10256 0.17682,0.52554 0,0.68763 -0.17683,0.16208 -0.57337,-0.16209 -0.7502,0 -1.55218,1.42274 2.37194,-0.0556 -0.7502,1.37527 -1.88974,0.86608 0.64923,-2.61169 -2.25058,1.37527 -0.13873,0.19072 0.17682,0.52557 0,0.68764 -0.17682,0.16207 -0.52655,-0.10257 -0.7502,0 -0.90023,0.41259 -1.35036,1.65032 -2.25059,2.0629 -0.22366,0.10257 -0.52654,-0.10256 -0.75021,0 -1.38112,0.63299 -0.11927,1.42994 -1.50039,2.06291 -0.22365,0.10257 -0.52653,-0.10245 -0.75019,0 -0.63261,0.28994 -0.86777,1.08534 -1.5004,1.37527 -0.22365,0.10257 -0.57337,-0.16207 -0.75019,0 -0.17682,0.16209 0.17682,0.52556 0,0.68765 -0.17682,0.16207 -0.57337,-0.16209 -0.7502,0 -1.55218,1.42274 2.37194,-0.0556 -0.7502,1.37525 -0.22366,0.10257 -0.52652,-0.10244 -0.75019,0 -0.31631,0.14498 -0.50013,0.45843 -0.7502,0.68765 -0.25006,0.22921 -0.59204,0.39771 -0.7502,0.68764 -0.11183,0.20501 0.17683,0.52554 0,0.68763 -0.35364,0.32415 -1.14673,-0.32415 -1.50039,0 -1.55219,1.42274 2.37194,-0.0556 -0.75019,1.37526 -0.22367,0.10257 -0.52655,-0.10245 -0.7502,0 -0.31631,0.14498 -0.50013,0.45843 -0.7502,0.68765 -0.25007,0.2292 -0.59203,0.3977 -0.75019,0.68763 -0.11183,0.20502 0.17681,0.52557 0,0.68764 -0.35365,0.32416 -1.14676,-0.32416 -1.50041,0 -1.55218,1.42274 2.37194,-0.0557 -0.75019,1.37528 -0.22366,0.10257 -0.52652,-0.10257 -0.7502,0 -0.31631,0.14495 -0.43388,0.54266 -0.75019,0.68762 -0.22366,0.10257 -0.57337,-0.16207 -0.7502,0 -0.17682,0.16208 0.17683,0.52556 0,0.68765 -0.17682,0.16207 -0.52652,-0.10257 -0.7502,0 -0.31631,0.14496 -0.43387,0.54266 -0.75019,0.68762 -0.22367,0.10257 -0.52652,-0.10257 -0.7502,0 -1.38111,0.63297 -0.11927,1.42995 -1.50039,2.06291 -0.44732,0.20502 -1.14674,-0.32415 -1.50038,0 -0.17683,0.16207 0.11183,0.48262 0,0.68764 -0.82937,1.5204 -0.46562,0.21339 -1.50041,0.68764 -0.11392,0.0523 -1.38645,1.32306 -1.50038,1.37527 -0.22367,0.10257 -0.57338,-0.16209 -0.7502,0 -0.17682,0.16208 0.17682,0.52556 0,0.68762 -0.17682,0.16209 -0.52654,-0.10257 -0.75019,0 -0.31632,0.14497 -0.50014,0.45843 -0.75022,0.68765 -0.25006,0.22921 -0.59202,0.3977 -0.75017,0.68763 -0.11183,0.20501 0.1768,0.52556 0,0.68763 -0.35365,0.32416 -1.14676,-0.32414 -1.50042,0 -0.39538,0.36242 -0.44002,0.94883 -0.75018,1.37528 0.53653,0.9391 -1.43145,0.62444 -1.5004,0.68763 -1.552175,1.42275 2.37194,-0.0555 -0.750185,1.37528 -1.03479,0.47423 -0.67104,-0.83277 -1.50039,0.68763 -0.40012,0.73348 0.74265,0.91915 -0.7502,1.37527 -0.47447,0.14497 -1.05305,-0.20501 -1.50039,0 -0.14423,0.066 0.47826,1.4999 -0.7502,2.06291 -0.22367,0.10256 -0.57338,-0.16208 -0.7502,0 -0.17682,0.16207 0.11183,0.48262 0,0.68764 -0.82936,1.52039 -0.4656,0.21337 -1.50039,0.68763 -0.90024,0.41259 -1.35036,1.65033 -2.2506,2.0629 -0.22365,0.10257 -0.57338,-0.16206 -0.75018,0 -0.17684,0.16209 0.11183,0.48262 0,0.68765 -0.15816,0.28993 -0.59206,0.3977 -0.75021,0.68763 -0.11183,0.20501 0.17682,0.52555 0,0.68763 -1.55218,1.42276 0.0608,-2.17413 -1.50039,0.68764 -0.11183,0.20501 0.17682,0.52559 0,0.6876 -1.55218,1.42272 0.0608,-2.1741 -1.50039,0.68767 -0.22368,0.41007 0.35364,1.05117 0,1.37533 -0.35365,0.32404 -1.14675,-0.32416 -1.5004,0 -0.17683,0.16202 0.17682,0.52553 0,0.68754 -0.17683,0.16215 -0.57338,-0.16201 -0.75019,0 -0.35365,0.32415 0.35364,1.05117 0,1.37533 -0.17683,0.16202 -0.52654,-0.10208 -0.7502,0 -0.31631,0.14499 -0.50014,0.45841 -0.7502,0.68767 -0.25005,0.22913 -0.59203,0.39769 -0.75019,0.68753 -0.11183,0.20504 0.11183,0.48263 0,0.68767 -1.56108,2.86178 0.0519,-0.73504 -1.5004,0.68767 -0.17682,0.16201 0.11183,0.48265 0,0.68766 -0.15815,0.28991 -0.59203,0.39765 -0.75019,0.68755 -0.11183,0.20502 0.17683,0.52559 0,0.68767 -0.17683,0.16209 -0.57337,-0.16208 -0.7502,0 -0.17683,0.16209 0.17683,0.52547 0,0.68768 -0.17683,0.16196 -0.57339,-0.16221 -0.75019,0 -0.17683,0.16196 0.11183,0.48265 0,0.68767 -0.15816,0.28978 -0.59205,0.39764 -0.7502,0.68755 -0.11183,0.20501 0.17683,0.52558 0,0.68767 -0.35366,0.32405 -1.14676,-0.32418 -1.5004,0 -0.35365,0.32405 0.35364,1.05117 0,1.37534 -0.17683,0.16197 -0.57337,-0.16221 -0.7502,0 -0.17683,0.16197 0.17683,0.52546 0,0.68767 -0.17683,0.16197 -0.57337,-0.16221 -0.7502,0 -0.35364,0.3239 0.35365,1.0509 0,1.3751 -0.17682,0.1622 -0.57336,-0.162 -0.75019,0 -0.17683,0.1622 0.17683,0.5256 0,0.6877 -0.17683,0.1621 -0.57337,-0.1621 -0.7502,0 -0.17683,0.1621 0.11183,0.4826 0,0.6876 -0.15816,0.2899 -0.59203,0.3978 -0.75019,0.6876 -0.11183,0.2051 0.11183,0.4827 0,0.6877 -1.56107,2.8618 0.0519,-0.735 -1.5004,0.6877 -0.17681,0.1619 0.11183,0.4826 0,0.6877 -0.15816,0.2899 -0.59203,0.3976 -0.75019,0.6875 -0.11183,0.205 0.11183,0.4827 0,0.6877 -0.15816,0.29 -0.59204,0.3976 -0.7502,0.6876 -0.11183,0.2051 0.17683,0.5255 0,0.6877 -0.17683,0.162 -0.57337,-0.1622 -0.7502,0 -0.17681,0.162 0.11183,0.4827 0,0.6876 -0.15814,0.2899 -0.59203,0.3977 -0.75019,0.6876 -0.11183,0.2051 0.17683,0.5255 0,0.6877 -0.17682,0.162 -0.57337,-0.1622 -0.7502,0 -0.17682,0.162 0.17683,0.5255 0,0.6877 -0.17682,0.1619 -0.57337,-0.1622 -0.75019,0 -0.35365,0.324 0.35364,1.051 0,1.3751 -0.17682,0.1622 -0.57337,-0.162 -0.7502,0 -0.17682,0.1622 0.11183,0.4826 0,0.6877 -0.15815,0.29 -0.59205,0.3977 -0.7502,0.6876 -0.11183,0.205 0.17683,0.5256 0,0.6877 -0.17681,0.1621 -0.57338,-0.1621 -0.75019,0 -0.35365,0.3241 0.35363,1.051 0,1.3752 -0.17682,0.1622 -0.57337,-0.1619 -0.75021,0 -0.35363,0.3242 0.35367,1.0512 0,1.3754 -0.17682,0.1619 -0.57337,-0.1621 -0.7502,0 -0.15335,0.1405 0.14873,1.7901 0,2.0629 -0.15813,0.2897 -0.59203,0.3976 -0.75019,0.6876 -0.11183,0.2049 0.17683,0.5255 0,0.6876 -0.17682,0.1621 -0.57337,-0.1621 -0.7502,0 -0.353643,0.3242 0.35365,1.0511 0,1.3753 -0.17682,0.162 -0.573373,-0.1622 -0.750193,0 -0.2323,0.2128 0.23229,3.2253 0,3.4381 -0.17682,0.1621 -0.57337,-0.1621 -0.7502,0 -0.35365,0.3242 0.35364,1.0511 0,1.3753 -0.17682,0.1622 -0.57337,-0.162 -0.7502,0 -0.37509,0.3439 0.3751,1.7191 0,2.063 -0.17681,0.1619 -0.57337,-0.1621 -0.75019,0 -0.17682,0.1619 0,0.4583 0,0.6875 0,1.6044 0,3.2091 0,4.8136 0,1.6044 0,3.2089 0,4.8133 0,0.2293 -0.17682,0.5256 0,0.6877 0.17682,0.1621 0.57338,-0.1621 0.75019,0 0.3751,0.3438 -0.37509,1.7191 0,2.0629 0.17683,0.162 0.57338,-0.162 0.7502,0 0.35364,0.3242 -0.35365,1.0512 0,1.3753 0.17683,0.162 0.57338,-0.1622 0.7502,0 0.35364,0.3241 -0.35365,1.05106 0,1.37526 0.17682,0.1621 0.573373,-0.1621 0.750193,0 0.17683,0.1621 -0.17682,0.5254 0,0.6876 0.17683,0.162 0.57338,-0.1622 0.7502,0 0.35364,0.3242 -0.35365,1.0511 0,1.3751 0.17683,0.1622 0.57339,-0.1619 0.75019,0 0.17683,0.1622 -0.1768,0.5257 0,0.6877 0.17683,0.1622 0.57338,-0.162 0.7502,0 0.17684,0.1622 -0.17682,0.5256 0,0.6877 0.17684,0.1621 0.52654,-0.1022 0.75021,0 0.31632,0.145 0.43388,0.5428 0.75019,0.6877 0.22366,0.1022 0.57338,-0.1621 0.7502,0 0.17683,0.162 -0.17682,0.5255 0,0.6875 0.35363,0.3242 1.14675,-0.3242 1.50039,0 0.17683,0.1622 -0.17682,0.5257 0,0.6877 0.35365,0.3241 1.05307,-0.205 1.50039,0 0.31631,0.145 0.43389,0.5426 0.7502,0.6876 0.22368,0.1023 0.50014,0 0.7502,0 0.25006,0 0.50013,0 0.75019,0 1.25034,0 2.50066,0 3.75098,0 1.5004,0 3.0008,0 4.50119,0 0.25006,0 0.57337,0.1621 0.7502,0 0.17683,-0.162 -0.17683,-0.5254 0,-0.6876 0.35364,-0.3242 1.14675,0.3241 1.50039,0 0.17683,-0.162 -0.17683,-0.5255 0,-0.6877 0.17683,-0.162 0.57337,0.1622 0.7502,0 0.17683,-0.162 -0.17683,-0.5255 0,-0.6875 0.17683,-0.1621 0.57337,0.162 0.75019,0 0.17682,-0.1621 -0.17682,-0.5256 0,-0.6877 0.17682,-0.1621 0.57337,0.1621 0.7502,0 0.17683,-0.1621 -0.17683,-0.5255 0,-0.6877 0.17683,-0.162 0.57337,0.1622 0.7502,0 0.17681,-0.162 -0.17683,-0.5255 0,-0.6877 0.17681,-0.1619 0.57336,0.1622 0.75019,0 0.17682,-0.1619 -0.17683,-0.5254 0,-0.6874 0.17682,-0.1622 0.57337,0.162 0.7502,0 0.17682,-0.1622 -0.11183,-0.4827 0,-0.6877 0.15816,-0.29 0.59204,-0.3977 0.7502,-0.6876 0.11183,-0.2051 -0.17683,-0.5256 0,-0.6877 0.17681,-0.1621 0.57336,0.1621 0.75019,0 1.55219,-1.42266 -2.37194,0.055 0.7502,-1.37516 2.00052,0 -0.25006,0.229 0.75019,-0.6877 0.17682,-0.162 0.57337,0.162 0.7502,0 0.35365,-0.3242 -0.35365,-1.0512 0,-1.3753 0.17682,-0.162 0.57337,0.162 0.75021,0 0.1768,-0.162 -0.17684,-0.5255 0,-0.6876 0.1768,-0.1621 0.57337,0.1621 0.75018,0 0.17682,-0.1621 -0.17681,-0.5256 0,-0.6877 0.17682,-0.1621 0.57338,0.1621 0.75021,0 0.35363,-0.3241 -0.35367,-1.0511 0,-1.3753 0.17682,-0.162 0.57337,0.1622 0.7502,0 0.1768,-0.162 -0.17683,-0.5255 0,-0.6876 1.55218,-1.4228 -0.0608,2.1742 1.50039,-0.6876 0.51739,-0.9485 -0.90854,-0.6151 0.75019,-1.3754 0.22367,-0.1022 0.57337,0.1622 0.7502,0 0.3751,-0.3436 -0.3751,-1.719 0,-2.0627 0.35365,-0.3242 1.14675,0.3241 1.50039,0 0.17682,-0.1621 -0.11183,-0.4827 0,-0.6877 0.15815,-0.2899 0.59204,-0.3978 0.7502,-0.6876 0.11183,-0.205 -0.17683,-0.5257 0,-0.6876 0.17682,-0.1622 0.57337,0.1619 0.7502,0 1.55219,-1.4228 -2.37194,0.055 0.75019,-1.3754 0.22367,-0.1022 0.57337,0.1621 0.7502,0 0.3751,-0.3438 -0.3751,-1.7191 0,-2.0629 1.552185,-1.4227 -0.0608,2.1741 1.500385,-0.6876 0.11183,-0.2051 -0.11184,-0.4827 0,-0.6877 0.15815,-0.2898 0.59204,-0.3977 0.7502,-0.6876 0.11183,-0.205 -0.17683,-0.5256 0,-0.6876 0.17681,-0.1621 0.57338,0.162 0.75018,0 0.17683,-0.1621 -0.1768,-0.5255 0,-0.6877 0.17683,-0.162 0.57338,0.1622 0.75021,0 0.37511,-0.3438 -0.3751,-1.719 0,-2.0628 0.35364,-0.3242 1.14676,0.3241 1.50038,0 0.35367,-0.3242 -0.35362,-1.0511 0,-1.3753 0.17684,-0.1621 0.57339,0.1621 0.75022,0 0.17682,-0.1621 -0.11183,-0.4827 0,-0.6876 0.15815,-0.29 0.59203,-0.3979 0.75019,-0.6876 0.11183,-0.2051 -0.17682,-0.5256 0,-0.6877 0.17682,-0.162 0.57337,0.1621 0.7502,0 0.17682,-0.162 -0.11184,-0.4827 0,-0.6877 0.15815,-0.2899 0.59204,-0.3976 0.7502,-0.6875 0.11183,-0.2051 -0.17683,-0.5257 0,-0.6877 0.17681,-0.1621 0.57337,0.162 0.75018,0 0.17683,-0.1621 -0.11183,-0.4827 0,-0.6877 0.31632,-0.5798 1.18409,-0.7953 1.50041,-1.3752 0.11183,-0.205 -0.11184,-0.4827 0,-0.6877 0.3163,-0.5798 1.18407,-0.7954 1.50038,-1.3753 0.22367,-0.4099 -0.35365,-1.0511 0,-1.3751 0.17683,-0.1622 0.57338,0.1619 0.75019,0 0.17683,-0.1622 -0.11183,-0.4827 0,-0.6877 0.15816,-0.29 0.59205,-0.3978 0.7502,-0.6877 0.22368,-0.4101 -0.35364,-1.051 0,-1.3752 0.17683,-0.1622 0.57338,0.162 0.7502,0 0.17682,-0.1622 -0.17682,-0.5257 0,-0.6877 0.17682,-0.1622 0.57338,0.162 0.75019,0 0.17683,-0.1622 -0.11183,-0.4826 0,-0.6876 0.15816,-0.2899 0.59205,-0.3977 0.7502,-0.6877 0.11184,-0.2049 -0.11183,-0.4827 0,-0.6875 0.15816,-0.2901 0.59205,-0.3978 0.7502,-0.6877 0.11184,-0.205 -0.17682,-0.5255 0,-0.6877 0.17682,-0.162 0.57337,0.1622 0.75019,0 0.17683,-0.162 -0.17682,-0.5255 0,-0.6877 0.17683,-0.162 0.57338,0.1622 0.7502,0 0.35364,-0.3242 -0.35365,-1.0511 0,-1.3752 0.17684,-0.1621 0.57339,0.1621 0.75019,0 0.17683,-0.1621 -0.11183,-0.4826 0,-0.6877 0.15816,-0.2899 0.59206,-0.3976 0.75021,-0.6877 0.22367,-0.4099 -0.22366,-0.96516 0,-1.37507 1.56106,-2.86179 -0.0518,0.73505 1.50039,-0.68767 0.17683,-0.16221 -0.11183,-0.48266 0,-0.68767 0.15816,-0.28991 0.59205,-0.39777 0.7502,-0.68767 0.22365,-0.41003 -0.35365,-1.05105 0,-1.37522 0.17683,-0.16221 0.57338,0.16196 0.7502,0 0.35364,-0.32418 -0.35365,-1.05117 0,-1.37535 0.35364,-0.32417 1.14674,0.32418 1.50039,0 0.3751,-0.34377 -0.3751,-1.71911 0,-2.06288 0.17683,-0.16201 0.57338,0.16215 0.75019,0 0.17683,-0.16201 -0.11183,-0.48263 0,-0.68767 0.15816,-0.28984 0.59205,-0.39768 0.7502,-0.68753 0.22368,-0.41006 -0.35364,-1.05117 0,-1.37534 0.17683,-0.162 0.57338,0.16215 0.7502,0 0.17683,-0.162 -0.17682,-0.52551 0,-0.68766 0.17683,-0.16201 0.57338,0.16215 0.75019,0 0.17683,-0.16201 -0.17681,-0.52552 0,-0.68754 0.17683,-0.16214 0.57338,0.16202 0.7502,0 0.35365,-0.32416 -0.22365,-0.96526 0,-1.37533 0.15816,-0.28999 0.59205,-0.39768 0.7502,-0.68767 0.11183,-0.20504 -0.17682,-0.52552 0,-0.6876 0.17682,-0.16207 0.57337,0.16208 0.75019,0 0.17683,-0.16207 -0.17682,-0.52556 0,-0.68764 0.17683,-0.16208 0.57338,0.16208 0.7502,0 0.35364,-0.32414 -0.35365,-1.05112 0,-1.37526 0.17683,-0.16209 0.57338,0.16207 0.7502,0 0.17682,-0.16209 -0.11183,-0.48262 0,-0.68765 0.15815,-0.28993 0.59203,-0.39769 0.75019,-0.68762 0.11183,-0.20503 -0.11183,-0.48262 0,-0.68765 0.15816,-0.28993 0.59206,-0.3977 0.75021,-0.68763 0.11183,-0.20501 -0.17683,-0.52555 0,-0.68763 1.55218,-1.42274 -0.0608,2.17413 1.50039,-0.68764 0.22365,-0.41003 -0.35366,-1.05112 0,-1.37527 0.17683,-0.16208 0.57338,0.16208 0.7502,0 0.17681,-0.16208 -0.11183,-0.48262 0,-0.68764 0.15816,-0.28994 0.59203,-0.39769 0.75019,-0.68763 0.11183,-0.20502 -0.17681,-0.52556 0,-0.68764 0.17683,-0.16208 0.57338,0.16208 0.7502,0 0.35364,-0.32415 -0.35365,-1.05112 0,-1.37527 0.24662,-0.22606 1.25377,0.22606 1.50039,0 0.3751,-0.34382 -0.3751,-1.71908 0,-2.06291 0.35365,-0.32416 1.14675,0.32416 1.50039,0 0.17683,-0.16207 -0.11183,-0.48262 0,-0.68764 0.15816,-0.28993 0.59204,-0.39769 0.7502,-0.68763 0.11183,-0.20501 -0.17683,-0.52555 0,-0.68763 0.17683,-0.16209 0.57337,0.16208 0.7502,0 0.35364,-0.32415 -0.35365,-1.05113 0,-1.37527 0.35364,-0.32416 1.14674,0.32414 1.50039,0 0.3751,-0.34382 -0.3751,-1.71909 0,-2.06291 0.35364,-0.32416 1.14675,0.32414 1.50039,0 0.17683,-0.16208 -0.11183,-0.48262 0,-0.68764 0.15816,-0.28993 0.59204,-0.3977 0.7502,-0.68763 0.11183,-0.20502 -0.17683,-0.52556 0,-0.68764 0.17683,-0.16208 0.57339,0.16208 0.75019,0 0.17682,-0.16208 -0.1768,-0.52556 0,-0.68764 0.17682,-0.16206 0.57337,0.16208 0.7502,0 0.17682,-0.16206 -0.11183,-0.48262 0,-0.68762 0.15816,-0.28994 0.59205,-0.39772 0.75021,-0.68765 0.11183,-0.205 -0.17683,-0.52556 0,-0.68762 0.1768,-0.16209 0.57338,0.16206 0.75018,0 0.17684,-0.16209 -0.1768,-0.52556 0,-0.68765 0.17684,-0.16207 0.57338,0.16209 0.75021,0 0.35363,-0.32416 -0.35365,-1.05112 0,-1.37527 0.17683,-0.16207 0.57337,0.16208 0.7502,0 0.17681,-0.16207 -0.17683,-0.52556 0,-0.68763 0.35364,-0.32417 1.14674,0.32416 1.50039,0 0.35364,-0.32417 -0.35365,-1.05112 0,-1.37527 0.35364,-0.32417 1.14675,0.32415 1.50039,0 0.35365,-0.32417 -0.35364,-1.05112 0,-1.37527 0.17682,-0.16208 0.57337,0.16207 0.7502,0 0.17681,-0.16208 -0.17683,-0.52556 0,-0.68764 1.55218,-1.42274 -0.0608,2.17414 1.50039,-0.68765 0.22366,-0.41001 -0.35365,-1.0511 0,-1.37525 0.35364,-0.32417 1.14675,0.32415 1.50039,0 0.17682,-0.16209 -0.17683,-0.52556 0,-0.68765 0.17682,-0.16207 0.57337,0.16209 0.7502,0 0.17682,-0.16207 -0.17683,-0.52555 0,-0.68763 0.17682,-0.16208 0.57337,0.16208 0.75019,0 0.17682,-0.16208 -0.17682,-0.52555 0,-0.68764 0.17682,-0.16208 0.57337,0.16209 0.7502,0 0.35365,-0.32414 -0.35364,-1.05112 0,-1.37526 0.35365,-0.32416 1.05306,0.205 1.50039,0 3.12215,-1.43088 -0.80198,0.0475 0.7502,-1.37527 0.17683,-0.16209 0.57338,0.16206 0.75021,0 0.1768,-0.16209 -0.17683,-0.52556 0,-0.68765 0.1768,-0.16207 0.52652,0.10257 0.75019,0 1.65872,-0.7602 0.2328,-0.42676 0.7502,-1.37527 1.56106,-2.86178 -0.0519,0.73511 1.50039,-0.68763 0.17682,-0.16208 -0.17683,-0.52556 0,-0.68764 0.17682,-0.16207 0.57337,0.16208 0.7502,0 0.17681,-0.16207 -0.17683,-0.52555 0,-0.68763 0.35364,-0.32417 1.14673,0.32415 1.50039,0 0.35364,-0.32417 -0.35366,-1.05112 0,-1.37527 0.17682,-0.16208 0.57337,0.16207 0.7502,0 0.17681,-0.16208 -0.17683,-0.52556 0,-0.68764 0.35364,-0.32416 1.14673,0.32417 1.50039,0 0.35364,-0.32416 -0.35366,-1.05112 0,-1.37527 0.17682,-0.16207 0.57337,0.16207 0.75019,0 0.17682,-0.16207 -0.17682,-0.52556 0,-0.68763 0.17682,-0.16209 0.52654,0.10244 0.7502,0 0.63262,-0.28995 0.86778,-1.08534 1.50038,-1.37527 0.22368,-0.10257 0.57338,0.16207 0.75021,0 0.17682,-0.16209 -0.17683,-0.52556 0,-0.68765 0.17682,-0.16208 0.57337,0.16209 0.7502,0 0.17681,-0.16208 -0.17683,-0.52556 0,-0.68762 0.17681,-0.16208 0.57336,0.16206 0.75018,0 0.17683,-0.16208 -0.17682,-0.52556 0,-0.68764 0.17683,-0.16209 0.57338,0.16208 0.75022,0 0.17682,-0.16209 -0.17684,-0.52557 0,-0.68765 1.55217,-1.42274 -0.0606,2.17415 1.50039,-0.68762 0.11183,-0.20503 -0.17683,-0.52556 0,-0.68765 0.25503,-0.23376 1.24533,0.23378 1.50038,0 0.17683,-0.16207 -0.17681,-0.52556 0,-0.68763 0.17683,-0.16207 0.57338,0.16207 0.75021,0 0.17682,-0.16207 -0.17683,-0.52555 0,-0.68764 0.25528,-0.234 1.2451,0.234 1.50038,0 0.17683,-0.16207 -0.17682,-0.52556 0,-0.68763 0.17683,-0.16208 0.57338,0.16207 0.7502,0 0.35365,-0.32415 -0.35365,-1.05112 0,-1.37527 0.35365,-0.32417 1.14675,0.32415 1.50039,0 0.17683,-0.16208 -0.17682,-0.52556 0,-0.68764 0.17683,-0.16206 0.57338,0.16208 0.7502,0 0.17683,-0.16206 -0.17682,-0.52556 0,-0.68763 0.17683,-0.16208 0.57338,0.16207 0.75019,0 0.17683,-0.16208 -0.17681,-0.52556 0,-0.68764 0.17683,-0.16207 0.52655,0.10257 0.7502,0 0.31632,-0.14496 0.43389,-0.54267 0.7502,-0.68764 0.22367,-0.10245 0.57337,0.16208 0.75019,0 0.17683,-0.16207 -0.17682,-0.52554 0,-0.68763 0.17683,-0.16207 0.57338,0.16209 0.7502,0 0.17683,-0.16207 -0.17682,-0.52556 0,-0.68763 0.17683,-0.16209 0.57339,0.16207 0.75019,0 0.17683,-0.16209 -0.1768,-0.52556 0,-0.68764 0.17683,-0.16207 0.57338,0.16208 0.7502,0 0.17683,-0.16207 -0.17682,-0.52556 0,-0.68763 0.35367,-0.32417 1.14676,0.32415 1.50039,0 0.17684,-0.16209 -0.1768,-0.52556 0,-0.68765 0.17684,-0.16206 0.57339,0.16209 0.75021,0 0.17683,-0.16206 -0.17682,-0.52556 0,-0.68762 0.17683,-0.16208 0.57338,0.16206 0.7502,0 0.17682,-0.16208 -0.17682,-0.52556 0,-0.68764 0.35364,-0.32415 1.14674,0.32415 1.50039,0 0.35364,-0.32415 -0.35365,-1.05113 0,-1.37527 0.35364,-0.32416 1.14675,0.32414 1.50039,0 0.17683,-0.16209 -0.17682,-0.52556 0,-0.68765 0.17683,-0.16207 0.57338,0.16209 0.7502,0 0.17683,-0.16207 -0.17682,-0.52555 0,-0.68762 0.17683,-0.16207 0.57338,0.16207 0.75019,0 0.17683,-0.16207 -0.17681,-0.52556 0,-0.68763 0.17683,-0.16209 0.57338,0.16207 0.7502,0 0.17683,-0.16209 -0.17682,-0.52557 0,-0.68765 0.17683,-0.16206 0.57338,0.16208 0.7502,0 0.17682,-0.16206 -0.17682,-0.52556 0,-0.68762 0.17682,-0.16209 0.57336,0.16206 0.75019,0 0.17683,-0.16209 -0.17683,-0.52556 0,-0.68765 0.17683,-0.16208 0.57338,0.16209 0.7502,0 0.17683,-0.16208 -0.17682,-0.52556 0,-0.68764 0.17683,-0.16206 0.57338,0.16208 0.7502,0 0.17682,-0.16206 -0.17682,-0.52554 0,-0.68763 0.17682,-0.16208 0.57336,0.16209 0.75019,0 0.17683,-0.16208 -0.17683,-0.52556 0,-0.68764 0.17683,-0.16207 0.57337,0.16208 0.7502,0 0.35364,-0.32415 -0.35365,-1.05111 0,-1.37527 1.55219,-1.42274 -0.0607,2.17415 1.50039,-0.68763 0.22366,-0.41003 -0.35365,-1.05111 0,-1.37527 0.35366,-0.32417 1.14676,0.32416 1.5004,0 0.17683,-0.16208 -0.17681,-0.52556 0,-0.68765 0.17683,-0.16206 0.57338,0.16209 0.7502,0 0.35363,-0.32414 -0.35365,-1.05111 0,-1.37526 0.17683,-0.16208 0.57338,0.16208 0.7502,0 1.55218,-1.42274 -2.37194,0.0556 0.75019,-1.37527 0.22367,-0.10256 0.57337,0.16208 0.7502,0 0.3751,-0.34382 -0.3751,-1.71909 0,-2.0629 0.17683,-0.16209 0.57338,0.16207 0.75019,0 0.35365,-0.32417 -0.35364,-1.05113 0,-1.37527 0.17683,-0.16209 0.57337,0.16207 0.7502,0 0.17683,-0.16209 0,-0.45843 0,-0.68765 0,-0.35956 0.0986,-2.56973 0,-2.75053 -0.46351,-0.84972 -0.7243,-0.68765 -1.50039,-0.68765 -0.25007,0 -0.7502,0.22922 -0.7502,0 0,-0.2292 1.00026,0 0.7502,0 -0.7502,0 -1.50039,0 -2.25059,0 -2.00053,0 -4.00105,0 -6.00158,0 -0.18195,0 -2.22647,-0.022 -2.25059,0 -0.17682,0.16209 0.17683,0.52556 0,0.68765 -0.35365,0.32414 -1.14675,-0.32416 -1.50039,0 -0.17682,0.16207 0.17683,0.52555 0,0.68763 -0.35365,0.32416 -1.14675,-0.32416 -1.5004,0 -0.17681,0.16207 0.17683,0.52555 0,0.68763 -0.17681,0.16209 -0.52654,-0.10257 -0.75019,0 -0.31631,0.14498 -0.43388,0.54268 -0.7502,0.68764 -0.22366,0.10256 -0.57337,-0.16207 -0.75019,0 -0.17682,0.16207 0.17682,0.52555 0,0.68763 -0.3751,0.34382 -1.87549,-0.34381 -2.25059,0 -0.17682,0.16209 0.17681,0.52556 0,0.68765 -0.17682,0.16207 -0.57338,-0.16209 -0.75021,0 -0.17682,0.16207 0.17683,0.52556 0,0.68762 -0.35363,0.32416 -1.14675,-0.32415 -1.50039,0 -0.17682,0.16208 0.17683,0.52556 0,0.68765 -1.55218,1.42274 0.0608,-2.17414 -1.50039,0.68763 -0.11183,0.20501 0.17682,0.52555 0,0.68763 -0.3751,0.34382 -1.87549,-0.34382 -2.25059,0 -0.17682,0.16208 0.17683,0.52556 0,0.68764 -0.17682,0.16208 -0.57337,-0.16208 -0.7502,0 -0.17682,0.16208 0.17683,0.52556 0,0.68764 -0.17682,0.16207 -0.57337,-0.16208 -0.75018,0 -0.17683,0.16207 0.17681,0.52555 0,0.68763 -0.35366,0.32415 -1.05308,-0.20501 -1.50041,0 -3.12213,1.43089 0.80199,-0.0475 -0.75018,1.37526 -0.25507,0.23379 -1.24536,-0.23376 -1.50041,0 -0.17681,0.16209 0.17683,0.52557 0,0.68765 -0.17681,0.16207 -0.57336,-0.16208 -0.75018,0 -0.17683,0.16207 0.11183,0.48262 0,0.68763 -1.56109,2.86177 0.0518,-0.7351 -1.50042,0.68764 -0.1768,0.16207 0.17683,0.52556 0,0.68763 -0.1768,0.16209 -0.57335,-0.16207 -0.75017,0 -0.17684,0.16209 0.17682,0.52556 0,0.68765 -0.17684,0.16206 -0.57339,-0.16209 -0.75022,0 -0.17682,0.16206 0.17683,0.52555 0,0.68762 -0.35362,0.32417 -1.14673,-0.32415 -1.50038,0 -0.17683,0.16208 0.17682,0.52556 0,0.68764 -0.17683,0.16209 -0.57338,-0.16208 -0.75021,0 -0.17681,0.16209 0.17683,0.52557 0,0.68763 -0.17681,0.16208 -0.57337,-0.16206 -0.75018,0 -0.17683,0.16208 0.17681,0.52556 0,0.68764 -0.17683,0.16209 -0.57338,-0.16208 -0.7502,0 -0.17683,0.16209 0.17682,0.52556 0,0.68765 -0.17683,0.16206 -0.50014,0 -0.7502,0 -0.75019,0.91684 -1.50039,1.83369 -5.25137,4.81344 z"
       id="path3786" />
  </g>
</svg>
